<?xml version="1.0" encoding="utf-8"?>
<!-- Generator: $$$/GeneralStr/196=Adobe Illustrator 27.6.0, SVG Export Plug-In . SVG Version: 6.00 Build 0)  -->
<svg version="1.1" id="Calque_1" xmlns="http://www.w3.org/2000/svg" xmlns:xlink="http://www.w3.org/1999/xlink" x="0px" y="0px"
	 viewBox="0 0 512 512" style="enable-background:new 0 0 512 512;" xml:space="preserve">
<style type="text/css">
	.st0{fill:#FFFFFF;}
	.st1{fill:none;}
	.st2{fill:#87E39C;}
	.st3{fill:#BF2F56;}
	.st4{fill:#265374;}
	.st5{fill:#ED4622;}
	.st6{fill:#90D2E1;}
	.st7{fill:#7B96D2;}
	.st8{fill:#FBD89D;}
	.st9{fill:#F7C151;}
</style>
<g>
	<g>
		<g>
			<path class="st0" d="M203.9,306.7c0-25.9,21-46.9,46.9-46.9v-0.3c25.9,0,46.9-21,46.9-46.9c0-23.3-16.9-42.6-39.1-46.3
				c-2.5-0.4-5.1-0.7-7.8-0.7s-5.3,0.2-7.8,0.7c-48.2,4-86.1,44.3-86.1,93.5c0,51,40.7,92.5,91.4,93.8
				C223.7,352.3,203.9,331.8,203.9,306.7z M270.4,212.5c0,10.8-8.7,19.5-19.5,19.5s-19.5-8.7-19.5-19.5s8.7-19.5,19.5-19.5
				C261.7,193,270.4,201.7,270.4,212.5z"/>
			<g>
				<path class="st1" d="M203.9,306.7c0-25.9,21-46.9,46.9-46.9v-0.3c25.9,0,46.9-21,46.9-46.9c0-23.3-16.9-42.6-39.1-46.3
					c-2.5-0.4-5.1-0.7-7.8-0.7s-5.3,0.2-7.8,0.7c-48.2,4-86.1,44.3-86.1,93.5c0,51,40.7,92.5,91.4,93.8
					C223.7,352.3,203.9,331.8,203.9,306.7z M270.4,212.5c0,10.8-8.7,19.5-19.5,19.5s-19.5-8.7-19.5-19.5s8.7-19.5,19.5-19.5
					C261.7,193,270.4,201.7,270.4,212.5z"/>
				<g>
					<path class="st0" d="M243.6,190.6c-0.5,0.3-1.2,0.5-1.8,0.6s-1,0.1-1-0.2l-0.4-0.2c0.2-0.1,0.6-0.3,1.1-0.5s1-0.3,1.4-0.4
						C243.9,189.7,244.4,189.8,243.6,190.6z"/>
					<path class="st0" d="M244.6,192.9c-0.9,0.1-0.3-0.3-0.2-0.5c0.4-0.1,0.8-0.2,1.2-0.3C246,192.3,245.1,192.7,244.6,192.9z"/>
					<path class="st0" d="M246,198.2h0.3c-0.3,0-0.6,0-0.9,0.1c-0.1-0.3,0.2-0.7,0.8-0.8C246.1,197.9,245.6,198.1,246,198.2z"/>
					<path class="st0" d="M231.6,204.1c0.7,0.6,2.3,0,3.6-0.6c0.3,0.4,0.7,0.7,1,1.1c-0.5,0.2-0.9,0.8-1.1,1.5
						c-0.2,0.7-0.4,1.4-0.6,2.1c0.2,0.6,0.8-1.1,0.7,0.3c-0.2,0.1-0.6-0.1-0.8,0.1c0,0.6,0.4,0.8,0.6,1.2c0.1,0.2,0.2,0.4,0.2,0.7
						s0,0.7-0.1,1.3c-0.2,0.3-0.5,0.5-0.7,0.8c0,2.2,0.8,4.3,1.8,6.2s2.3,3.5,3.5,5.1c1,0,2.4,1.4,3.7,1.6l-0.2,0.4
						c0.9-0.3,1.6,1,2.5,1.2c0.2,0.2,0.4,0.4,0.6,0.6c0.1,0.8-2.3-0.5-2,0.8c0.4,0.3,0.8,0.5,1.2,0.6s0.8,0,1.2,0
						c0.8,0,1.5-0.2,2.2,0.3c1.5,0.2,1.4-0.2,2.3-0.5c0.2-0.4-0.3-0.4-0.2-0.9c1.5-0.2,2.4,0.1,3.3,0.5c0.4,0.1,0.9,0.3,1.4,0.3
						c0.5,0,1.1-0.1,1.8-0.4c0-0.2,0.4-0.8,0.6-1.2c0.1-0.4,0-0.8-1-0.6c-0.2,0.3-0.5,0.5-0.7,0.8l-0.8-0.2c0.3-0.1,0.8-0.3,1.2-0.5
						s0.6-0.5,0.4-0.7c0.8,0.5,1.8-0.4,2.3-1.2c0.5-0.7,0.9-1.2,0.8,0.4c-0.6,0.3-1,0.4-1.3,0.6c-0.3,0.2-0.4,0.6-0.7,1
						c1.4-0.7,2.7-1.3,3.8-2.1c1.2-0.8,2.1-1.8,2.9-2.8c-0.1-0.4-0.1-0.7-0.2-1c0.3,0.2,0.8,0,1.2-0.3c0.4-0.3,0.9-0.8,1.2-1.4
						c0-0.6,0.3-1.2,0-1.2c-0.1-0.1-0.2,0.1-0.4,0.5c-0.1,0.2-0.2,0.4-0.3,0.6c-0.1,0.2-0.3,0.4-0.4,0.6c-0.5,0.7-1,1.1-1.1-0.1
						c0.8-1.1,1.4-2.4,2-3.6c0.3-0.6,0.6-1.2,0.8-1.8c0.2-0.6,0.5-1.1,0.8-1.6c0,0.7,0,1.3,0.1,2c0,0.6,0.1,1.3,0.4,2.2
						c-0.1,2.7-1.3,5.4-3,7.7s-3.8,4.2-6,6c-0.4-0.3-1.8,0.1-1.6-0.6c-0.6-0.1-1.7,0.7-2.2,0.1c-1.8,0.9-4,1.3-6.1,1.2
						s-4.1-0.7-5.8-1.4c0.3,0.8-0.3,0.8-1.2,0.6c-0.8-0.3-1.8-0.7-2.4-0.8c-0.3-0.5-0.8-0.9-1.4-1.3c-0.3-0.2-0.6-0.4-0.9-0.6
						c-0.3-0.2-0.5-0.4-0.8-0.6c-0.2,0.1-0.9-0.4-1,0c0.8,0.5,0.9,1,1.6,1.7c-0.5,0.3-0.9-0.1-1.3-0.7c-0.2-0.3-0.4-0.6-0.6-0.9
						c-0.2-0.3-0.4-0.7-0.6-1l0.9,0.2c-0.8-0.9-1.3-2.2-1.8-3.4c-0.4-1.2-0.8-2.3-1.6-3.1c-0.1,0.7,0,1.3,0,2
						c-0.8-1.1-1.2-2.6-1.4-4c-0.1-0.7-0.3-1.4-0.4-2c-0.1-0.6-0.4-1.2-0.7-1.7c-0.1,0.5,0,1,0.1,1.5s0.2,1.1,0.3,1.6
						c0.2,1,0.3,1.7-0.3,1.9c-0.3,0.1-0.7-0.5-0.9-1.2c-0.1-0.3-0.2-0.7-0.3-1.1c0-0.4,0-0.7,0-1c0.1-1.2,0.1-2.2,0-3.3
						c0-0.5,0-1-0.1-1.5l-0.1-0.8v-0.7C229.6,207.6,230.1,205.6,231.6,204.1z"/>
					<path class="st0" d="M227.9,209.8c-0.1,1,0,1.7,0.2,2.1c0.1,0.4,0.3,0.7,0.6,0.9c0.2,0.2,0.4,0.5,0.6,0.9
						c0.2,0.4,0.2,1,0.4,1.9c-0.7-0.4-1,1.5-0.7,2.8c0.2,0.3,0.3,0.6,0.4,0.9c0.1,0.3,0.3,0.6,0.4,0.9c0.2,0.6,0.4,1.3,0.6,1.7
						c0.2,0.7-0.6,1-1.2-0.4c0-1-0.3-1.9-0.5-2.9c-0.1-0.5-0.3-1-0.4-1.5c-0.1-0.5-0.2-1-0.4-1.5c-0.1-0.5-0.2-1-0.3-1.5
						s-0.1-1-0.1-1.5C227.4,211.6,227.5,210.6,227.9,209.8z"/>
					<path class="st0" d="M232.1,207.3c-0.3,1.7-1.7,0.7-1.6,2.6c-0.6-0.9,0.1-1,0.5-2.6l0.2,1L232.1,207.3z"/>
					<path class="st0" d="M231.5,221.9c0.5,1.1,1.8,3.6,1.2,4.2c0.1,0.2-0.5,0.2,0.1,0.7C232.2,225.7,230.6,222.8,231.5,221.9z"/>
					<path class="st0" d="M233.1,216.1c0.3,0.5,0.4,1.1,0.7,1.9C233.5,217.5,232.9,216.9,233.1,216.1z"/>
					<path class="st0" d="M233.6,222.5c0.4-0.5,0.6,0.7,0.8,1c0,0.2,0.1,0.5,0.2,0.7C234,223.8,233.6,223.1,233.6,222.5z"/>
					<path class="st0" d="M239.2,231c1.4,1.2-2.1-0.3-0.3,0.9c-0.4-0.2-0.8-0.4-1.1-0.6l0.2-1.1C238.4,230.5,238.8,230.8,239.2,231z
						"/>
					<path class="st0" d="M241.3,233.1c0.3,0,0.6,0.1,0.9,0.2c0.3,0.1,0.6,0.2,1,0.5l-0.6,0.2C242.1,234,241.9,233.4,241.3,233.1z"
						/>
					<path class="st0" d="M240.3,230c0.8,0.2,0.4,0.6,0.8,1C240.7,231.2,239.5,229.7,240.3,230z"/>
					<path class="st0" d="M248.7,226.8c-0.7,0.7-1.7,0-2.8-0.1c0.5,0.1,1,0,1.4,0c0.2,0,0.4,0,0.6,0
						C248.2,226.7,248.4,226.8,248.7,226.8z"/>
					<path class="st0" d="M257.2,189.6c0.7,0.4,1.6,0.6,2.2,0.5l-0.3-0.4C258.5,189.6,257.8,189.6,257.2,189.6z"/>
					<path class="st0" d="M245.6,188.9c-0.3,0.6-0.1,0.6,0.3,0.6c0.5,0,1.2-0.1,2.1,0.2c0.5-0.1,1-0.1,1.6-0.1
						c0.5-0.1,1-0.2,1.6-0.2c1.1-0.1,2.2-0.3,3.2-0.1l1.4-0.3c-0.6-0.2-1.4-0.4-2.2-0.6c-0.8-0.1-1.7-0.2-2.7-0.3
						c-0.9,0-1.9,0-2.8,0.2C247.2,188.4,246.3,188.6,245.6,188.9z"/>
					<path class="st0" d="M245.3,193.8c0.7,0.1,1.4-0.3,2-0.5c0.7-0.2,1.3-0.5,1.8-0.5c-0.8,0-1.7,0.1-2.6,0.3
						c-0.8,0.2-1.6,0.3-2.2,0.5C244.3,193.8,245,193.7,245.3,193.8z"/>
					<path class="st0" d="M272.9,202.2c-0.3-0.6-0.6-1.3-1-2s-0.8-1.4-1.3-2.1c-0.2-0.3-0.5-0.7-0.8-1s-0.6-0.6-0.9-0.9
						c-0.3-0.3-0.6-0.5-1-0.7s-0.7-0.4-1.1-0.5c0.9,1.1,0.7,1.3,1.9,3c-1-0.2-1.5-0.8-1.9-1.5c-0.5-0.7-0.9-1.6-1.6-2.1
						c1,1.1-0.9,0.3-1.9-0.3c-0.5-0.4-1-0.8-1.7-1.2s-1.4-0.7-2.1-1.1c-1.6-0.6-3.3-1.1-4.9-1.3c-0.4,0.1-0.9,0-1.5-0.1
						c-0.6,0-1.3-0.1-1.9-0.1c-1.2,0-2.2,0.2-1.8,0.8c-1,0.1-1.5,0-2-0.2s-1-0.4-1.8-0.3c-2,1.2-3.9,1.3-6.1,1.8
						c-2.1,0.5-4.3,1.4-5.5,3.8c-0.3-0.7-2,1.2-2.5,2c-0.3,0.4-0.8,1-1.2,1.7s-0.8,1.4-1,2c-0.5,1.3-0.5,2.3,0.3,2.1
						c0.7-0.5,1-1.5,1.4-2.5c0.2-0.5,0.5-1.1,0.8-1.6s0.8-0.9,1.2-1.2c0.8-0.5,1.2-0.5,1.1-0.3c0,0.2-0.3,0.7-0.7,1.3
						c-0.2,0.3-0.4,0.6-0.6,0.9c-0.2,0.3-0.3,0.6-0.4,0.9c-0.2,0.6-0.3,1,0,1.2c0.1-0.5,1.1-0.2,1.5-1.7c-0.6,1.5-0.1,1.3,0.4,1.1
						s1.2-0.5,1.1,0.3c0.6-0.6,1.1-0.9,1.4-1.2c0.4-0.3,0.7-0.4,0.9-0.5c0.5-0.2,1-0.2,2.1-0.1c0.5-0.7,0.6-1.1,0.5-1.5
						s-0.3-0.7-0.3-1.1c0.3-0.4,0.7-0.7,1.1-0.9c0.4-0.2,0.8-0.4,1.3-0.4c0.9-0.2,1.7-0.3,2.4-0.7c-0.3,1.1,0.5,1.2,1.5,1
						s2.3-0.5,3.3-0.6c0.6,0,0.9-0.1,1.2-0.3c0.2-0.1,0.3-0.3,0.5-0.5c0.2-0.4,0.5-0.8,1.9-0.6c0.6,0.6-0.1,0.7-0.7,1
						c-0.6,0.3-1.1,0.6-0.4,1.1c0.4-0.1,0.8-0.2,1.1-0.2c0.8-0.6,1.6-1.4,2.7-1.6c0.6,0.1,1.4,0.5,1.3,0.7c-1.2-0.1-1,0.7-0.2,1.4
						c0.6-0.1,0.7-0.1,1.1-0.2c-0.6-1.4-0.1-1.2,0.9-0.6c0.5,0.3,1,0.7,1.6,1s1.1,0.6,1.6,0.7c2.4,1,2.4,2,2.3,2.9
						c-0.1,0.5-0.2,0.9-0.1,1.5c0.1,0.5,0.4,1.1,1.2,2c0.2-0.5,0.5-0.6,0.7-0.5c0.3,0.1,0.5,0.5,0.8,1c0.6,1,1,2.5,1.5,3.2
						c0.2,0.7,0.1,1.1-0.1,1.6c-0.2,0.4-0.3,0.8-0.6,1.3c0.2,0.3,0.4,1.3,0.7,1.5c0.6-0.2,1.1-0.5,1.7-1s1.1-1.2,1.5-2.1
						c0.9-1.7,1.3-4.2,1.1-7C273,202.2,272.9,202.1,272.9,202.2z"/>
				</g>
				<g>
					<path class="st0" d="M168.8,297.2c-0.5-1-1-2.1-1.5-3.3c-0.4-1.2-0.9-2.4-1.2-3.5c-0.6-2.1-0.9-3.7-0.4-3.2l0.1-0.9
						c0.3,0.9,0.7,2.4,1.3,4.1s1.3,3.6,1.9,5.1c0.6,1.5,1,2.8,1.1,3.2C170.2,299.2,169.7,298.9,168.8,297.2z"/>
					<path class="st0" d="M166.9,299.3c-1.4-3.6,0-1,0.4-0.5c0.7,1.6,1.5,3.1,2.3,4.7c0.3,0.8-0.2,0.2-0.8-0.8
						C168.2,301.7,167.4,300.3,166.9,299.3z"/>
					<path class="st0" d="M161,299.4l0.5,1.6c-0.5-1.6-1.5-3.8-2-5.2c0.1-0.1,0.5,0.5,1,1.5s1.2,2.4,1.8,3.9
						C161.8,300.7,160.6,297.8,161,299.4z"/>
					<path class="st0" d="M166,223.4c-0.2-0.7-1,0-2.3,1.5c-0.6,0.8-1.2,1.8-2,3c-0.7,1.2-1.4,2.6-2.1,4.1l-0.6-2.8
						c1.1-2.3,2.5-5.7,4.1-9.4c1.7-3.7,3.7-7.6,5.7-10.9c1.3-2.7-4.1,5.9-0.4-0.8c0.6-0.6,0.6,0.1,1.6-1.2c1.7-3,1.9-3.8,2.8-5.4
						c0.4-0.8,1-1.8,2.2-3.3c0.6-0.8,1.2-1.6,2.2-2.6c0.9-1,1.9-2.2,3.3-3.5l2-1.6l2.1-1.5c4.7-4.4,9.8-8.4,15.3-12
						c5.5-3.5,11.4-6.5,17.4-8.8c6.1-2.3,12.4-4,18.7-5c0.8-0.1,1.6-0.3,2.4-0.4l2.4-0.2l1.2-0.1l0.6-0.1h0.1h-0.1l0,0l0,0h0.2
						c0.8-0.1,1.6-0.2,2.4-0.3c3.2-0.3,6.5-0.3,9.7,0c2.3-0.2,6.8,0.3,11.4,1.7c4.7,1.4,9.6,3.6,13,5.8l-0.1,0.5
						c2.1,1,4.6,2.9,6.9,5.2c0.3,0.3,0.6,0.6,0.9,0.9l0.8,0.9c0.5,0.6,1.1,1.2,1.6,1.9c1,1.2,1.9,2.5,2.8,3.6c0.9,1.5,1.7,3,2.5,4.5
						c0.1,0.5-0.3,0-1-1c-0.4-0.5-0.8-1.1-1.2-1.7c-0.2-0.3-0.5-0.7-0.7-1l-0.8-0.9c-2-2.6-4.3-4.5-3.1-2.5
						c3.3,4.1,5.8,7.8,7.9,11.5c2,3.8,3.5,7.7,4,12.2c0.2,2.2,0.5,3.8,0.6,5s0.2,2.1,0.3,2.9c0.1,0.4,0.1,0.7,0.2,1.1
						c0,0.4,0,0.7,0.1,1.1c0,0.8,0.1,1.8,0,3.2c0.4,1.5,0.5-1.8,1-1.2c0,0.6-0.1,1.3-0.1,1.8c0,0.6-0.2,1.2-0.2,1.7
						c-0.2,1.1-0.4,2.2-0.5,3.2c-0.4,2-1,3.7-1.5,5.2c-0.6,1.5-1.2,2.8-1.8,4c-0.6,1.2-1.3,2.3-2,3.3c-0.3,0.5-0.6,1.1-1,1.6
						s-0.7,1-1.1,1.5c-0.8,1-1.5,2.1-2.4,3.2c-0.5,0.5-0.9,1.1-1.4,1.7c-0.2,0.3-0.5,0.6-0.8,0.9c-0.3,0.3-0.6,0.6-0.9,0.9
						c-1.2,1.2-2.4,2.7-4.1,4.1c-0.1,0.2-0.7,0.9-1.5,1.8c-0.8,0.8-1.9,1.8-2.6,2.5s-1,1.2-0.5,1c0.3-0.1,0.7-0.3,1.5-0.8
						c0.4-0.2,0.8-0.5,1.3-0.9c0.5-0.3,1.1-0.7,1.8-1.3c1.5-1.5,3-3,4.2-4.7l1.6-1.4c0.5-0.5,1-1,1.5-1.5c-0.4,0.5-0.8,1-1.2,1.6
						c-0.5,0.5-1,1.1-1.5,1.7c-0.5,0.6-1,1.1-1.5,1.7c-0.5,0.5-1.1,1-1.6,1.5c-1,0.9-1.8,1.8-2.4,2.3s-0.8,0.8-0.5,0.8
						c-0.8,0.3-1.8,0.9-2.9,1.6c-1.2,0.7-2.5,1.4-3.9,2.3c-0.7,0.5-1.4,0.8-2.2,1.2c-0.7,0.4-1.5,0.8-2.2,1.2
						c-1.5,0.7-3,1.3-4.4,1.9c-0.7,0.3-1.4,0.5-2,0.7s-1.2,0.4-1.7,0.5c-1,0.3-1.8,0.5-2.1,0.5c-0.4,0-0.4-0.1,0.1-0.3
						c0.5-0.3,1.5-0.8,3-1.5c0.5-0.1,1-0.2,1.5-0.3c0.5-0.1,0.9-0.3,1.3-0.4c0.8-0.3,1.6-0.5,2.3-0.8c1.4-0.4,2.5-1,3.6-1.6
						c2.1-1,3.7-2.2,5.8-3.9c-4.4,2.9-9.1,4.8-13.8,6.2c-1.2,0.3-2.4,0.6-3.5,0.8c-1.2,0.2-2.4,0.3-3.5,0.5
						c-0.6,0.1-1.2,0.1-1.7,0.2c-0.6,0-1.2,0-1.7,0.1c-1.2,0-2.3,0.1-3.4,0.1l2.7-2.7c0,0.1,0,0.2,0,0.3l-0.1,2.8l-2.7-0.1
						c-6.3-0.1-12.3,1.1-17.7,3.4l-3.2,2.4c-0.3-0.2-1.9,0.4-4.2,1.5c-1.1,0.7-2.3,1.4-3.6,2.3c-0.6,0.5-1.2,1-1.8,1.5
						s-1.3,1-1.8,1.6c-0.9,1.1-2,2.3-2.7,3.2c-0.7,1-1,1.6-0.6,1.3c-0.2,0.6,3.3-4.1,7.1-6.9c0.9-0.7,1.8-1.3,2.5-1.8
						s1.3-0.8,1.6-0.9s0.4,0,0.1,0.3c-0.3,0.3-0.9,1-1.9,1.9l-1.1,0.8c-0.4,0.3-0.7,0.6-1.1,0.9l-2.1,1.8c-0.7,0.6-1.3,1.3-1.9,2
						l-1,1c-0.3,0.3-0.6,0.7-0.9,1.1c-0.6,0.7-1.2,1.4-1.7,2.2c-0.5,0.7-1,1.5-1.5,2.3c-1.1,1.5-1.8,3.1-2.7,4.6
						c-3.2,6.3-4.4,12.7-5,17.6c0.1-1.8,0.1-3.5,0.2-5.1c0.1-0.8,0.2-1.6,0.3-2.4s0.2-1.6,0.4-2.3c0.7-3.1,1.3-6.2,2.6-9.9
						c1.6-3.9,4-7.6,6.7-10.9c2.7-3.4,6.2-6.2,9.8-8.7l2.8-1.7l3-1.5c1-0.5,2-0.9,3.1-1.3l1.6-0.6l0.8-0.3l0.8-0.2l3.2-0.8
						c1.1-0.3,2.2-0.4,3.3-0.6l1.6-0.3c0.5-0.1,1.1-0.1,1.6-0.1c1.1-0.1,2.2-0.1,3.3-0.2h0.2v-0.2v-0.3l-0.2,0.2
						c4.8-0.1,9.6-0.9,14.1-2.4c4.5-1.6,8.6-3.8,12.2-6.5c0.5-0.1,2.2-1.1,3.6-1.9c1.3-0.9,2.3-1.6,1.7-0.7c0.5-0.3,1.2-0.9,1.9-1.6
						c0.7-0.7,1.5-1.5,2.2-2.3c0.4-0.4,0.8-0.8,1.1-1.2c0.3-0.4,0.7-0.8,1-1.1c0.6-0.7,1.2-1.3,1.6-1.5c2.8-4.3,5.1-9.2,6.6-14.4
						s2-10.8,1.8-16.2c-0.3-5.4-1.5-10.7-3.4-15.5s-4.6-9.1-7.5-12.7c0.6,1.2,0.4,1.3-0.3,0.7c-0.6-0.6-1.9-1.8-3.3-3.2
						c-1.5-1.3-3.2-2.9-5-4.1c-0.4-0.3-0.9-0.6-1.3-0.9c-0.4-0.3-0.8-0.5-1.2-0.7c-0.8-0.5-1.5-0.8-2.1-1.1
						c-0.9-0.7-2.2-1.4-3.5-2.2c-0.7-0.4-1.4-0.7-2.2-1c-0.8-0.3-1.5-0.7-2.3-0.9c-3.2-1.1-6.7-1.9-9.7-2.2
						c-0.7,0.1-4.4-0.1-3.5,0.3c4.4,0.1,6,0.8,10.3,2c-0.3,0-0.6,0-1,0s-0.9-0.1-1.4-0.2c-1.1-0.2-2.4-0.6-3.8-0.8
						c-2.9-0.6-6.6-1-9.9-0.7c1.1-0.3,2.3-0.5,3.5-0.6c-1.4,0-2.8,0-4.3,0.1c-0.7,0-1.5,0.1-2.2,0.2c-0.7,0.1-1.5,0.2-2.2,0.2
						c-3,0.1-6.1,0.4-9.1,0.8c-6,0.8-11.8,2.4-16.5,4.7c1.4-0.4,2.8-0.7,4.2-1.1c1.4-0.3,2.8-0.6,4.3-0.9c-6,1.9-12.6,4.4-18.5,7.4
						s-11,6.6-14.3,10c3.3-2.5,7.9-5.8,11.8-8c3.9-2.3,7.1-3.6,7.2-3c0,0.2-0.6,0.6-1.5,1.1c-0.9,0.6-2.1,1.2-3.4,2
						c-1.3,0.8-2.7,1.6-4.1,2.4c-1.3,0.8-2.6,1.6-3.5,2.1c-4.2,2.5-7.9,5.5-11.1,8.6c-1.6,1.5-3.1,3.2-4.5,4.8c-1.4,1.7-2.7,3.3-4,5
						c-1.3,1.6-2.4,3.4-3.6,5.1c-1.1,1.7-2.3,3.4-3.3,5.2c-1.1,1.7-2.1,3.5-3.2,5.3C168.1,219.7,167,221.5,166,223.4z"/>
					<path class="st0" d="M181.6,201.9c1.3-1.5,2.3-2.7,3.2-3.8c0.9-1,1.6-1.8,2.1-2.5c1.1-1.3,1.7-2.1,2.3-3
						c0.6-0.8,1.2-1.6,2.3-2.8c0.6-0.6,1.3-1.3,2.3-2.1s2.2-1.8,3.8-2.9c-0.6,0.8,0.7,0.2,2.7-0.9c2-1.1,4.8-2.6,7-3.8
						c4.1-2.7,9.7-4.9,13.9-6.3c1.4-0.5,2.1-0.4,1.7,0c-0.4,0.3-1.8,1-4.5,2c-6.9,2-14.1,5.9-20.4,10.8c-0.8,0.6-1.6,1.2-2.3,1.8
						c-0.8,0.6-1.5,1.2-2.3,1.9c-1.5,1.3-2.9,2.6-4.3,3.9C186.5,196.9,184,199.6,181.6,201.9z"/>
					<path class="st0" d="M170.5,211.3c1-1.8,1.9-2.9,2.5-3.6c0.7-0.8,1.1-1.2,1.6-1.6c0.5-0.4,1-0.8,1.6-1.6
						c0.3-0.4,0.7-0.8,1.1-1.4c0.4-0.5,0.9-1.2,1.5-2c-0.8,1.6-1.5,2.4-2.5,3.7c-0.5,0.6-1.1,1.3-1.9,2.3c-0.7,1-1.6,2.1-2.6,3.7
						c0.6-1.3,1.3-2.6,2-3.8C172.9,208.4,171.6,209.8,170.5,211.3z"/>
					<path class="st0" d="M222.7,172.4c2.4-0.8,6.6-2,10.2-2.4c1.8-0.3,3.5-0.4,4.7-0.4c1.2-0.1,2.1,0.1,2.2,0.3
						c0.8,0-0.5,0.6,2.3,0.1c-1.1,0.1-2.8,0.1-4.6,0.4c-0.9,0.1-1.9,0.2-2.9,0.4s-2,0.3-3,0.5c-1,0.1-2,0.4-2.9,0.5
						c-0.9,0.2-1.8,0.3-2.6,0.4C224.4,172.4,223.2,172.5,222.7,172.4z"/>
					<path class="st0" d="M200.3,179.1c1.2-0.9,2.5-1.6,4-2.5c0.7-0.5,1.5-0.8,2.4-1.3c0.9-0.4,1.8-1,2.8-1.4
						c-1.3,0.7-2.7,1.6-4.3,2.5C203.7,177.3,202,178.2,200.3,179.1z"/>
					<path class="st0" d="M228.8,169c-0.6-0.2,0.5-0.5,1.9-0.8c1.4-0.2,3.1-0.5,3.9-0.6l3.1-0.2C234.8,168,231.1,168.8,228.8,169z"
						/>
					<path class="st0" d="M271.6,173.1c1.6,0.9,1.9,1.2,1.7,1.2c-0.2-0.1-1.1-0.4-1.9-0.7c-1.6-0.6-3-1.1,0.7,0.8
						c-1.5-0.7-2.9-1.5-4.4-2l-1.3-1.6l2.6,1.1C270,172.2,270.8,172.7,271.6,173.1z"/>
					<path class="st0" d="M280.1,180.1c0.8,0.6,1.7,1.2,2.5,2.1c0.4,0.4,0.9,0.9,1.4,1.5c0.5,0.5,0.9,1.2,1.5,2l-1.5-1.3
						c-0.5-0.4-1-1-1.5-1.7c-0.3-0.4-0.6-0.8-0.9-1.2C281.1,181,280.6,180.6,280.1,180.1z"/>
					<path class="st0" d="M273.7,172.7c1.6,0.9,2.2,1.3,2.6,1.8c0.5,0.4,0.7,0.8,1.5,1.6c-0.3-0.1-0.9-0.6-1.6-1.1s-1.5-1-2.1-1.5
						s-1.2-0.9-1.3-1C272.7,172.2,272.9,172.3,273.7,172.7z"/>
					<path class="st0" d="M300.9,198.8c-1-1.7-1.8-4.4-3.2-7.4c-0.2-0.4-0.3-0.8-0.5-1.2s-0.4-0.8-0.6-1.1c-0.4-0.8-0.8-1.6-1.3-2.4
						c-0.4-0.8-1-1.5-1.5-2.3c-0.5-0.7-1-1.5-1.6-2.2c1.1,1.4,2,2.7,2.9,3.9c0.8,1.2,1.5,2.4,2.2,3.6c0.7,1.2,1.2,2.5,1.9,3.9
						c0.4,0.7,0.6,1.5,0.9,2.4C300.4,196.8,300.7,197.7,300.9,198.8z"/>
					<path class="st0" d="M203.3,335.7c1.2,0.9,2.6,1.7,3.9,2.4c1.4,0.7,2.6,1.2,3.6,1.6c-0.4-0.3-0.8-0.7-1.2-1
						c-1.1-0.5-2.1-0.9-3.2-1.5L203.3,335.7z"/>
					<path class="st0" d="M173.8,304.6c-1.2-1.2-1-0.6-0.2,1c0.9,1.5,2.3,4,3.8,6.7c2.3,3.3,5,6.5,7.9,9.3l1.1,1.1l1.1,1
						c0.8,0.7,1.5,1.4,2.3,2c1.6,1.3,3.1,2.6,4.6,3.9c0.7,0.4,1.4,0.9,2,1.3l2.1,1.2c-3.8-2.9-8.7-7.2-13.2-12.2
						c-2.3-2.5-4.4-5.1-6.4-7.7c-0.9-1.3-1.9-2.6-2.8-3.9C175.5,307.1,174.6,305.9,173.8,304.6z"/>
					<path class="st0" d="M166.8,301.4c0.3,0.7,0.6,1.4,1,2.2c0.4,0.7,0.8,1.5,1.2,2.2s0.8,1.5,1.3,2.2s0.9,1.4,1.4,2.1
						c1.9,2.8,3.9,5.2,5.3,6.9c-2.3-3-4.7-6.6-6.7-10.1c-1-1.8-2-3.5-2.7-5.1c-0.4-0.8-0.8-1.6-1.1-2.3c-0.3-0.7-0.6-1.4-0.9-2
						C165.1,297.1,166.2,300,166.8,301.4z"/>
					<path class="st0" d="M217.7,346.3c0.9,0.7,1.9,1.5,2.9,2.3c1.1,0.7,2.2,1.4,3.3,2.2l0.9,0.6l0.9,0.5c0.6,0.3,1.2,0.7,1.8,1
						s1.2,0.7,1.9,1s1.3,0.6,2,0.8c5.3,2.2,11.3,3.5,16.9,3.6l0.4-9.5c-2.1,0-4.2,0.1-6.1,0.1c1.4,0.2,2.4,0.3,3.3,0.4
						c0.9,0.1,1.8,0.2,2.8,0.3l-0.3,7.9c-0.8-0.1-1.8-0.3-3.1-0.5c-0.6-0.1-1.4-0.2-2.1-0.3c-0.8-0.2-1.7-0.4-2.7-0.6
						c0.7,0,1.3,0,2,0.1l1,0.1h1c1.3,0.1,2.7,0.2,4,0.4l0.2-6.3c-3.9-0.3-8-1.1-12.4-1.8c5.8,1.1-2,0.7-6.9-0.5
						c-4.6-1.3-10.6-3.2-16.6-6s-12.1-6.5-17.3-10.5c-1.1-0.8-3-2.1-4.8-3.8c-0.9-0.8-1.9-1.7-2.9-2.6c-0.9-0.9-1.9-1.8-2.7-2.7
						c-0.9-0.9-1.7-1.8-2.4-2.5c-0.7-0.8-1.3-1.5-1.8-2c-1-1-1.6-1.5-1.4-0.7c-5-6.3-4.8-7.9-7.5-13.1c-1.3-1.8-2.3-3.7-3.2-5.6
						s-1.7-3.8-2.4-5.8c-1.4-3.9-2.2-7.8-2.9-11.8s-1-8-1.4-12.2c-0.3-4.2-0.5-8.5-0.7-13.2c0.3,0.6,0.6-1.4,0.9-4
						c0.2-1.3,0.4-2.7,0.5-4.1c0.2-1.3,0.4-2.6,0.6-3.5c0.1-1,0.4-2.1,0.7-3.3c0.1-0.6,0.3-1.3,0.4-1.9c0.2-0.6,0.3-1.3,0.5-2
						s0.4-1.4,0.5-2c0.2-0.7,0.4-1.4,0.6-2c0.2-0.7,0.4-1.3,0.6-2c0.2-0.6,0.4-1.3,0.6-1.9c1.6-4.9,3-8.3,1.5-6.7
						c-0.8,1.1-1.5,2.7-2.2,4.5s-1.4,3.8-2,6c-1.2,4.3-2.2,9-3.2,13.1c-0.9,3.5-1.1,4.4-1.2,3.6c0-0.4,0-1.2,0.1-2.2
						s0.3-2.3,0.5-3.7c0.4-2.8,1.1-6,1.7-8.5c0.6-2.5,1.1-4.4,0.8-4.6c-0.2,1.1-0.7,1.8-1.3,3c-0.3,0.6-0.6,1.4-0.9,2.4
						c-0.2,0.5-0.3,1.1-0.5,1.7c-0.1,0.6-0.3,1.4-0.4,2.2c0.1-0.9,0.3-1.6,0.4-2.2c0.1-0.6,0.2-1.1,0.3-1.5c0.1-0.8,0.2-1.2,0.1-1.3
						c-0.1-0.3-0.5,0.6-1,1.7c-0.9,2.1-1.9,5.2-1.5,1.6c-1.1,3.9-1.7,6.9-2.1,9.1c-0.4,2.3-0.7,3.8-0.9,5.2c-0.5,2.7-1,4.4-1.7,8.6
						c0.2,5,0.8,6.8,1.2,7.7c0.4,0.9,0.8,0.8,1.3,2.2c0.9,5.2,1.6,9.7,2.6,14.2c0.9,4.4,2.2,8.6,4.1,12.8c-1.1-1.4-1.4-1.2-1.1,0.1
						c0.3,1.3,1.2,3.6,2.5,6.3c1.3,2.8,3.1,5.9,5.1,8.8c1,1.5,2,2.9,2.9,4.2c1,1.3,2,2.5,2.8,3.6c1.1,1.4,2,2.4,2.8,3.2
						c0.8,0.8,1.4,1.4,1.9,1.8c1,0.9,1.6,1.2,2.2,1.5c0.6,0.3,1.2,0.6,2.3,1.5s2.8,2.3,5.5,4.7c1.3,1.3,1.2,1.5,0.3,1
						c-0.4-0.2-1-0.6-1.6-1c-0.6-0.5-1.3-1-2-1.5c-1.4-1-2.7-2.1-3.3-2.4s-0.4,0.1,1.2,2c1.8,1.4,3.6,2.9,5.5,4.2
						c3.9,2.2,7.2,3.4,11.9,5.6c0.7,0.4,1.4,0.8,2.1,1.3c0.8,0.4,1.5,0.8,2.2,1.2c1.3,0.8,2.4,1.4,2.4,1.5c-2.7-1.2-3.8-1.5-3.5-1.1
						s2,1.7,4.8,3.3c1.4,0.5,2.3,0.8,3,1s1.3,0.3,2,0.5c-2.7-1.7-3.2-2.2-2.5-2c0.4,0.1,1.1,0.4,2.1,0.7c1,0.4,2.1,0.9,3.5,1.4
						s2.9,1.1,4.5,1.6c0.8,0.3,1.6,0.5,2.4,0.8c0.8,0.2,1.7,0.4,2.5,0.6s1.6,0.4,2.4,0.6c0.8,0.1,1.6,0.3,2.3,0.4s1.4,0.2,2.1,0.3
						c0.7,0.1,1.3,0.1,1.8,0.1c3,0.3,5.4,0.4,7.4,0.5s3.7,0.1,5,0.3l0.1-1.7c-2.2-0.3-3.7-0.6-4.9-1.1s-2.2-1-3.5-1.5
						c-0.6-0.3-1.3-0.6-2.1-1c-0.4-0.2-0.8-0.4-1.3-0.5c-0.2-0.1-0.5-0.2-0.7-0.3c-0.2-0.1-0.5-0.2-0.8-0.4c-2.2-1-5.1-2.2-8.8-4.5
						c1.2,1.3,1.1,1.5-0.1,1c-0.6-0.3-1.4-0.7-2.3-1.3c-0.9-0.7-2-1.4-3.1-2.4c-1-1-2.2-2-3.3-3.2c-0.5-0.6-1.1-1.2-1.6-1.8
						l-0.8-0.9c-0.2-0.3-0.5-0.6-0.7-1c-0.9-1.3-1.9-2.4-2.6-3.6c-0.4-0.6-0.7-1.1-1-1.6s-0.6-1-0.9-1.4c-2.8-6-2.8-8.6-3.2-13.1
						c-0.1-0.4-0.2-1.1-0.4-1.8c-0.1-0.4-0.2-0.7-0.2-1.1c-0.1-0.4-0.1-0.8-0.1-1.2c-0.2-1.6-0.4-3-0.5-3.4c-0.5,0.9-1.1,2.6-1.5,5
						c-0.1,1.2-0.2,2.6-0.2,4.1s0.2,3.2,0.4,5c0.7,3.6,1.6,7.8,3.7,12.1c2,4.3,4.9,8.8,8.8,12.9
						C217.2,346.1,217.7,346.4,217.7,346.3z"/>
				</g>
			</g>
		</g>
		<g>
			<path d="M297.8,212.5c0,25.9-21,46.9-46.9,46.9v0.3c-25.9,0-46.9,21-46.9,46.9c0,25.1,19.7,45.6,44.5,46.9c0.8,0,1.6,0.1,2.4,0.1
				s1.6,0,2.4-0.1c50.7-1.3,91.4-42.8,91.4-93.8c0-49.2-37.9-89.5-86.1-93.5C280.9,169.9,297.8,189.2,297.8,212.5z M270.4,306.7
				c0,10.8-8.7,19.5-19.5,19.5s-19.5-8.7-19.5-19.5s8.7-19.5,19.5-19.5C261.7,287.2,270.4,295.9,270.4,306.7z"/>
			<g>
				<path class="st1" d="M297.8,212.5c0,25.9-21,46.9-46.9,46.9v0.3c-25.9,0-46.9,21-46.9,46.9c0,25.1,19.7,45.6,44.5,46.9
					c0.8,0,1.6,0.1,2.4,0.1s1.6,0,2.4-0.1c50.7-1.3,91.4-42.8,91.4-93.8c0-49.2-37.9-89.5-86.1-93.5
					C280.9,169.9,297.8,189.2,297.8,212.5z M270.4,306.7c0,10.8-8.7,19.5-19.5,19.5s-19.5-8.7-19.5-19.5s8.7-19.5,19.5-19.5
					C261.7,287.2,270.4,295.9,270.4,306.7z"/>
				<g>
					<path d="M265.1,303.9c0-1.2,0.3-1.7,0.6-2c0.3-0.4,0.8-0.5,0.9-1.1c0.2,0.4,0.5,0.8,0.7,1.2c0,0.5,0.1,1,0,1.5s-0.1,1-0.2,1.5
						c-0.2,0.9-0.6,1.4-1,1.2c-0.1-0.1-0.3-0.4-0.6-0.8C265.4,304.8,265.1,304.4,265.1,303.9z"/>
					<path d="M268.9,306.5c0-0.3,0.1-0.3,0.1-0.6c0.3,0.2,0.7,0.5,1,0.8L268.9,306.5z"/>
					<path d="M265.5,299.1c-0.2-0.4-0.5-0.7-0.7-1c-0.1-0.3,0.5,0.2,0.5,0.1c-0.1-0.5-0.2-1-0.4-1.4
						C265.7,298.6,266.4,298.1,265.5,299.1z"/>
					<path d="M253.1,285.3c-0.6-0.3-0.3-0.5,0.1-0.7c0.5-0.1,1.2-0.2,1.5-0.4c0.5,0.1,1,0.4,1.2,0.6c0.2,0.3,0.2,0.5-0.3,0.6
						C254.4,285.1,253.8,285.3,253.1,285.3z"/>
					<g>
						<path d="M260.7,293.8c1-0.5,2.6,1.9,3,1.1c0.2-0.3,0.4-0.7,0.3-1.1c-0.5-0.3-1-0.5-1.4-0.7c-1.3-1.3-0.9-1.3-0.2-1.2
							c0.3,0,0.7,0.1,0.9,0c0.2-0.1,0.2-0.4-0.2-0.9c-0.5-0.3-0.7-0.5-1-0.5c-1.4-0.3-1.1,0.1-0.8,0.8c-0.8-0.4-1.2-0.9-1.5-1.3
							s-0.4-0.7-0.4-1.1c-0.1-0.7,0-1.4-1-1.8c-1.5-0.4-1.9,0-2,0.5s0,1-0.4,1.2c0.2-0.7-0.8-1.7-2.7-2.5c-1.8-0.7-4.5-1-6.7-0.5
							c-2,0.8-4.2,1.4-6.4,2.4c-2.1,1.1-4.3,2.6-5.5,4.9c-1.5,1.6-3.4,3.9-4.4,6.7c-0.1,0-0.2,0-0.2-0.1c0,0.1,0.1,0.2,0.2,0.2
							c-0.4,0.4-0.7,1.1-0.9,1.9s-0.3,1.7-0.4,2.5c0,0.8-0.1,1.6-0.2,2.2c-0.1,0.6-0.3,1-0.7,1.2l0.2,0.5c0.2,1.4,0.1,1.4-0.2,1.3
							c-0.2-0.1-0.6-0.4-0.6,0.5c0.3,1.3,0.4,2.9,0.7,4.3c0.2,0.7,0.4,1.3,0.7,1.8s0.7,0.9,1.2,1c0,0.2-0.2,0-0.2,0.3
							c0.4,0.6,0.8,1.2,1.3,1.8c0.4-0.1,0.9,0.1,1.1-0.4c0.2,0.4,0.8,0.5,1.1,1.1c1,1.4-0.4,0.6-0.3,1.3c1.6,1.6,3.3,3.1,5.2,4.4
							s3.9,2.4,5.8,3.4c-0.2,0.6,0.9,1.2,2.5,1.6c0.8,0.2,1.6,0.3,2.4,0.4c0.8,0,1.5,0,2,0c2.1,0.5,4.5,0,6.5-0.9
							c1-0.4,1.9-1,2.8-1.3c0.9-0.5,1.7-0.8,2.5-0.9c-0.3,0.4-0.8,0.7-1.3,1s-1.1,0.5-1.6,0.7s-1,0.4-1.4,0.5
							c-0.4,0.2-0.6,0.3-0.6,0.6c0.3,0,0.7,0.1,1,0.1c1-0.2,2.4-0.5,3.5-1c1.2-0.5,2.1-1.2,2.4-1.9c-1.2,0.2-1.5-0.2-2-0.3
							c0.6-0.6,0.6-1,1.4-1.7c0.6-0.5,1.3-1,1.8-1.3s1-0.5,1.2-0.2c-0.5,0.8-1.4,1.2-2,1.7c0.1,0.4,0.7,0.1,1.4-0.3
							c0.7-0.4,1.5-1,1.9-1.3c-1.2,0-1-0.9-1.2-1.5c-0.1-0.6-0.4-0.8-2.3,0.2c0.5-0.6,1-1.1,1.4-1.8c0-0.6-0.3-0.6-0.8-0.3
							c-0.5,0.2-1.2,0.6-1.9,0.9c-1.4,0.6-2.4,0.9-1.6-0.7c0-0.5-0.6-0.6,0-1.6c-0.4,0-0.8,0.1-1.1,0.4c-0.3,0.2-0.6,0.6-0.7,0.8
							c-0.6-0.3-1.5,0.3-2.5,0.6c-0.9,0.4-1.8,0.5-2.1-0.2c-0.5,0.5-1.1,0.7-1.7,0.8c-0.5,0-1.1,0-1.6-0.2s-1-0.4-1.5-0.6
							s-1-0.5-1.5-0.5c-1.4-0.4-1.7-0.2-1.7,0.1c-0.1,0.4,0.1,0.9-0.4,1.2c-1.4-0.8-3.1-0.7-4.2-0.9c-0.8-0.4-1-1.2-0.3-1.1
							c-4.9-4.5-6.9-10.8-5.6-16.5c0.8-1,0.9-2.1,1.5-3c0.4-1,1.2-1.9,2.5-2.2l-0.4,0.1c-0.2-0.1-0.1-0.3,0-0.6
							c-0.5,0.1-1,0.2-1.4,0.3c0.3-0.2,0.5-0.5,0.7-0.7c0.3-0.2,0.5-0.5,0.7-0.7c-0.1-0.4,0-0.7,0.3-1c0.1-0.2,0.3-0.3,0.5-0.5
							s0.4-0.3,0.6-0.5c0.2-0.2,0.4-0.3,0.6-0.5c0.2-0.1,0.4-0.3,0.6-0.4c0.2-0.2,0.3-0.3,0.5-0.5c0.1-0.2,0.2-0.3,0.3-0.5
							c1.9-0.7,2.6-0.6,3.2-0.5c0.3,0.1,0.6,0.1,1.1,0.1c0.5,0.1,1.1,0.1,2,0.2c1-0.3,2.1-0.4,3.4-0.4c1.2,0.1,2.5,0.3,3.6,1
							c0.2,0.1,0.4,0.2,0.5,0.4c0.1,0.2,0.3,0.3,0.3,0.5c0.2,0.3,0.2,0.6,0.1,0.6c0.5,0.2,1,0.6,1.5,1s1,0.8,1.3,1.3
							c1,0.6,1.5,1,1.8,0.9c0.3,0,0.3-0.4,0.2-1c-0.1-0.3-0.2-0.6-0.4-0.9c-0.2-0.3-0.4-0.7-0.6-1
							C261.6,294.7,261.1,294.1,260.7,293.8z"/>
						<path d="M238.5,328.5c-0.3,0.2-0.1,0.7,0.4,1.1c0.4,0.4,1,0.9,1.3,1.2c0.3,0.1,0.6,0.1,1,0.2c2.3,0.6,2.6-0.2,1.4-1
							c-0.3,0.2-1.1,0.1-1.9-0.2C239.9,329.3,239,328.9,238.5,328.5z"/>
						<path d="M226.7,314.7l0.8,0.1c-0.4-0.8-0.7-1.7-1-2.6C226,312.3,226.3,313.7,226.7,314.7z"/>
						<path d="M269,315.7c-0.2,0.5-0.5,0.8-0.8,1.1c-0.3,0.3-0.5,0.6-0.8,0.9s-0.6,0.5-0.8,0.8c-0.3,0.3-0.6,0.7-0.9,1.1
							c0.4,0.2,0.8,0.3,1.2,0.5c1.9-1.4,4-3.1,5-5.9c-0.3-1.1-0.8-0.4-1.3,0.4C270,315.5,269.3,316.4,269,315.7z"/>
						<path d="M264.7,318.2c0.6-1.7,1.7-3.2,2.5-4.8c0.8-1.6,1.1-3.4,0.3-4.9c-0.8,0.1-1.2,0.5-1.4,1c-0.2,0.5-0.3,1.1-0.4,1.9
							c-0.2,1.4-0.4,3.2-1.4,3.8c-0.4,1.3-0.7,2.1-1.6,3.6c-0.3,0.7,0,0.7,0.5,0.5C263.7,319,264.3,318.4,264.7,318.2z"/>
						<path d="M268.9,307.7c0-0.4-0.1-0.8-0.1-1c-0.2-0.3-0.5,0.4-0.7,0.7C268,307.8,268.6,308.8,268.9,307.7z"/>
					</g>
				</g>
				<g>
					<path d="M289.9,197.1c-1.1-3.1-2.1-5-2.6-6.5c-0.7-1.4-1-2.2-1.1-2.9c-0.4-1.3-0.1-1.6-1.4-3.9l2.3,2.6l2,2.8
						c0.6,1,1.1,2.1,1.6,3.3c0.3,0.6,0.5,1.2,0.7,1.8l0.7,1.8c0.8,2.4,1.4,4.9,1.7,7c0.1,0.5,0.2,1,0.2,1.5s0,0.9,0.1,1.4
						c0,0.8,0,1.6,0,2.1c-0.1,1.1-0.3,1.4-0.5,0.8c0-0.2-0.2-0.7-0.4-1.5c-0.2-0.8-0.4-1.8-0.7-2.9c-0.4-1.1-0.7-2.4-1.1-3.6
						c-0.2-0.6-0.5-1.3-0.7-1.9C290.4,198.4,290.2,197.7,289.9,197.1z"/>
					<path d="M296.3,211.5c-0.1-1.3,0-1.5,0-2.9l1.1,3.8L296.3,211.5z"/>
					<path d="M277.1,177.3c-0.4-0.3-0.9-0.6-1.3-0.9l-1.4-0.8c-0.9-0.6-1.8-1.1-2.8-1.6c-0.6-0.4-0.1-0.2,0.5,0.1
						c0.7,0.2,1.4,0.7,1.4,0.5c-2-1.3-4.1-2.6-6.4-3.5c1.1,0.5,2.1,0.9,3,1.4c0.8,0.4,1.6,0.8,2.2,1.1s1.1,0.6,1.6,0.9
						c0.4,0.3,0.8,0.5,1.1,0.7c0.6,0.4,1,0.6,1.3,1C276.6,176.3,276.8,176.7,277.1,177.3z"/>
					<path d="M317.3,196.3c3.1,4-3.3-2.2-5.1-3.2c-1.5-1.4-2.9-2.8-3.6-3.6s-0.6-1.1,0.9-0.1c1,0.9,1.9,1.7,2.7,2.3
						c0.8,0.7,1.4,1.3,2,1.8C315.4,194.5,316.3,195.4,317.3,196.3z"/>
					<g>
						<path d="M277.2,166.2c-0.7,0-2.2-0.2-3.9-0.5c-0.9-0.2-1.9-0.3-2.8-0.5c-1-0.2-2-0.4-3-0.5c-4-0.6-7.4-0.8-6.7-0.3
							c0.6,0.4,1.2,0.8,3,1.3l3.8,0.3l3.8,0.5c2.3,0.6,3.9,1.1,5,1.4c1.1,0.4,1.6,0.6,1.7,0.7c0.3,0.2-0.9,0-2.3-0.2
							c-2.8-0.4-6.2-0.8-0.2,1.1c2.6,0.7,3.9,1.1,5.1,1.3c6,1.6,4.4,0.8,1.1-0.8c1.1,0.4,2,0.7,2.9,1.1c0.9,0.4,1.7,0.7,2.4,1
							c1.4,0.6,2.5,1.2,3.4,1.8c0.9,0.5,1.6,1,2.1,1.4s0.9,0.8,1.2,1.1c0.6,0.7,1,1.2,1.8,1.9s1.9,1.5,4,2.8
							c1.4,0.9,2.6,1.5,3.5,2.1s1.6,0.9,2.1,1.2c1.1,0.5,1.5,0.5,1.6,0.3c0.3-0.4-0.4-1.5,1.1-0.8c-0.6,0.6,4.1,4.6,9.7,11.1
							c2.8,3.2,5.8,7,8.6,11.2c2.8,4.2,5.3,8.7,7.4,13c4.3,8,7.1,17.5,8.4,27.5c1.2,10,0.9,20.6-0.8,31.4c-1,4.5-2.6,9.7-4.8,15
							c-2.2,5.3-5,10.7-8.3,15.7c-0.1,0-0.1-0.1-0.2-0.1c-0.1,0.3-0.1,0.5-0.1,0.5c-0.7,0.9-1.5,1.9-2.4,3c-0.8,1.1-1.8,2.3-2.8,3.6
							c-1,1.3-2.1,2.5-3.2,3.8s-2.3,2.5-3.4,3.7c-1.2,1.1-2.3,2.3-3.4,3.3s-2.1,1.9-3.1,2.6c-1.9,1.4-3.4,2.3-4.1,2.3l-1.6,1.4
							c-1.1,0.8-1.9,1.4-2.5,1.8s-1,0.7-1.3,0.8c-0.5,0.3-0.5,0.1-0.3-0.1c0.4-0.5,1.1-1.3-1.5,0.2c-4.1,2.7-9.3,5-14.1,6.8
							c-1.2,0.5-2.4,0.8-3.5,1.2c-0.5,0.2-1.1,0.4-1.6,0.6s-1,0.3-1.5,0.5c-1,0.3-1.9,0.7-2.7,1c-0.8,0.3-1.5,0.6-2.1,0.9
							c-0.8,0.1,0.2-0.2-0.6-0.1c-1.3,0.4-2.6,0.7-3.8,1l-1.9,0.5l-2,0.4c-0.5,0.4-2,1.1-0.6,1.2c-1.8,0.3-3.4,0.8-6.1,1
							c-6.8,0.3-0.9-0.7-3.3-0.8c-2.1,0.2-4.2,0.3-6.3,0.2c-1-0.1-2.1-0.2-3.1-0.3l-0.8-0.1c-0.3,0-0.5-0.1-0.8-0.1l-1.6-0.3
							l-1.6-0.3c-0.5-0.1-1-0.3-1.5-0.4c-1-0.3-2.1-0.6-3.1-0.9l-3-1.2c-1-0.4-1.9-1-2.9-1.5c-0.5-0.3-1-0.5-1.4-0.8l-1.3-0.9
							c-0.9-0.6-1.8-1.1-2.6-1.8c-0.8-0.7-1.6-1.3-2.4-2c-0.7-0.7-1.5-1.5-2.2-2.2l-0.5-0.5L219,336l-1-1.2l-1-1.2
							c-0.3-0.4-0.6-0.8-0.9-1.2c-0.5-0.8-1.1-1.6-1.6-2.5s-0.9-1.7-1.3-2.6c0.1-0.1,0.1-0.4,0-0.8c-0.1-0.5-0.3-1.2-0.6-2
							c-0.7-1.6-1.4-3.9-2.1-6.3c-1.4-5-1.9-11.1-1.5-14.7c0.1-0.4,0.1-0.9,0.2-1.3l0.3-1.3c0.2-0.9,0.3-1.8,0.5-2.7
							c0.3-0.9,0.5-1.8,0.7-2.7c0.1-0.4,0.2-0.9,0.4-1.3l0.5-1.3c1.1-3.6,2.8-6.9,4.7-10.1c3.9-6.2,9.4-11,14.5-13.2
							c-2.6,2-6.3,4.4-8.9,7c-0.2,0.2-0.3,0.3-0.5,0.5s-0.3,0.3-0.5,0.5c-0.3,0.3-0.6,0.6-0.9,1c-0.5,0.6-1.1,1.2-1.5,1.7
							c-0.7,1.1-1.2,1.9-1.2,2.3c0.7-0.7,1.4-1.4,2.1-2.1c2.2-2.4,5.4-5.2,8.7-7.3c0.8-0.5,1.6-1,2.4-1.5c0.4-0.2,0.8-0.5,1.1-0.7
							c0.4-0.2,0.8-0.4,1.1-0.6c0.7-0.4,1.4-0.7,1.9-1.1c0.6-0.4,1.1-0.6,1.5-0.9c-0.5,0.1-0.9,0.2-1.2,0.2
							c-0.4,0.1-0.7,0.2-0.9,0.2c-0.5,0.1-1,0.2-1.3,0.3c-0.7,0.1-1.1,0.1-1.8,0.2c1.3-0.7,2-1.3,2.9-1.8c0.8-0.6,1.8-1,3.6-1.7
							c0.6-0.3,1.3-0.4,2-0.6s1.4-0.3,2-0.5c0.7-0.2,1.3-0.3,1.9-0.3c0.6-0.1,1.2-0.1,1.8-0.2s1.1-0.1,1.5-0.1c0.5,0,0.9,0,1.2,0.1
							c0.7,0.1,1,0.2,1.1,0.3c-0.8,0.1-1.5,0.2-2.3,0.2c-0.8,0.1-1.5,0.2-2.3,0.3c-0.8,0.1-1.5,0.2-2.2,0.3
							c-0.7,0.2-1.4,0.4-2.1,0.5c-0.2,0.2,0.2,0.2,0.9,0.2c0.7-0.1,1.7-0.3,2.9-0.4c0.6-0.1,1.2-0.1,1.8-0.2l1-0.1c0.3,0,0.6,0,1,0
							c1.3,0,2.5,0,3.4,0l5.3-0.1l0.2-5.5c0-0.1,0-0.2,0-0.3l-5.5,5.5c0.4,0,0.6,0,0.9,0c-0.4-0.1-0.7-0.1-0.9-0.2l5.3-5.3
							c0,0.1-0.1,0.2-0.1,0.3l-3,6.2l-2.2-1c-0.6-0.3-0.4-0.5,0-0.8l5.1-3.1l-0.7-1.3c0-0.1-0.1-0.2-0.1-0.3l-4.3,4.3
							c1.5-0.6,4.2-1.2,0-1.5l2.8-2.8c0,0.1,0,0.2,0,0.3l-0.4,2.9l-2.4-0.2c-0.6,0-1.3-0.1-2.1-0.1c-0.4,0-0.9,0-1.4,0s-1.1,0-1.7,0
							c0.9-0.2,1.8-0.2,2.6-0.3l2.6-0.2l2.2-0.2l-0.1-1.9v-0.3l-2.1,2.1l3.7-0.3c2.3-0.6,0-0.7-3.7-0.8l1-1c0,0.1,0,0.2,0,0.3
							l-0.1,1H251c-3.8-0.2-9.1,0.2-12,0.9c-1.5,0.2-2.4,0.3-2.3,0.1c0.1-0.3,1.2-0.7,3.9-1.7c0.8-0.4,0.6-0.6,0.9-0.9
							c0.3-0.3,1.1-0.6,4-1.2c-3.2-0.2-9.6,1.3-11.9,2.7c-2.3,0.1-8,2.8-12.7,6.2c-0.6,0.4-1.2,0.8-1.7,1.3s-1,0.9-1.5,1.3
							s-1,0.8-1.4,1.2c-0.2,0.2-0.5,0.4-0.7,0.6s-0.4,0.4-0.6,0.6c-1.5,1.5-2.6,2.4-3,2.2c-0.6,0.9-1.2,1.8-1.7,2.6
							c-0.5,0.8-1.2,1.6-1.6,2.4c-0.5,0.8-0.9,1.6-1.4,2.4c-0.2,0.4-0.5,0.8-0.7,1.1c-0.2,0.4-0.4,0.8-0.6,1.2
							c-1.6,3-2.8,5.8-3.9,8.7c-2.1,5.7-3.6,11.8-2.9,19.8c0.5,5.1,1.5,7.9,1.9,9.6c0.6,1.6,0.9,1.9,1.1,1.9c0.3-0.2,0.2-2,1.5,0.5
							c1.5,4.7,3.9,9.1,6.8,12.5c0.3,0.4,0.7,0.9,1,1.3c0.4,0.4,0.7,0.8,1.1,1.1c0.7,0.7,1.4,1.5,2.1,2.1c1.5,1.2,2.7,2.4,3.9,3.2
							c1,0.8,2,1.6,2.7,2.2c0.7,0.7,1.4,1.1,1.8,1.5c0.8,0.7,0.6,0.8-1-0.1l3.1,2.2c1.1,0.7,2.2,1.3,3.3,1.9
							c1.1,0.7,2.3,1.1,3.4,1.6l1.7,0.8c0.6,0.2,1.2,0.4,1.8,0.6c1.2,0.4,2.4,0.9,3.7,1.1l3.7,0.8c1.3,0.2,2.5,0.3,3.8,0.5
							c0.6,0.1,1.3,0.2,1.9,0.2l1.9,0.1c2.6,0.1,5,0,7.4-0.1c1.2,0,2.5-0.2,3.7-0.3l1.8-0.2l1.8-0.2c2.5-0.3,4.9-0.7,7.3-1.2
							c2.4-0.6,4.8-1.1,7.2-1.8c19.1-5.5,36.4-17.1,48.8-32.6c5.4-6,9.5-12.8,12.7-19.8c3.3-7.1,5.8-14.4,8.3-22l-0.9,2.5
							c-0.3,0.3,0.2-1.7,0.4-3.3c-0.9,2.5-1.7,4.9-2.7,7.2c0.7-2.2,1.2-4.5,1.8-6.8c0.4-2.3,0.9-4.6,1.2-6.9
							c-0.2-2.6,0.4-9.3,0.2-16.1c-0.1-3.4-0.4-6.9-0.9-9.8c-0.2-1.5-0.5-2.9-0.8-4c-0.1-0.6-0.3-1.1-0.4-1.6
							c-0.2-0.5-0.3-0.9-0.5-1.3c-1.2-6.3-2.5-10.3-3.4-13.2c-0.5-1.4-0.8-2.6-1.2-3.6c-0.4-1-0.7-1.9-1-2.8
							c-0.3-0.9-0.7-1.8-1.1-2.8s-0.9-2.2-1.6-3.5c-0.7-1.4-1.5-3-2.6-5c-0.6-1-1.2-2.1-1.9-3.2c-0.7-1.1-1.5-2.4-2.5-3.8
							c-8.5-11.2-21.4-22.3-36.1-29.8c-2.7-1.4-5.2-2.7-7-3.6c-1.8-0.9-2.8-1.5-2.2-1.5c-3.4-1.2-7.6-2.6-11.9-3.6
							c-1.1-0.3-2.2-0.5-3.2-0.7c-1.1-0.2-2.1-0.5-3.2-0.6c-2.1-0.3-4.1-0.7-6-0.9c-1.1-0.1-2.1-0.1-2.9-0.2l-1.4,10.8
							c1.7,0.3,3.1,0.4,4.2,0.7s2,0.4,2.6,0.6c1.3,0.3,1.7,0.3,1.4,0c-0.1-0.1-0.4-0.3-0.9-0.6c-0.4-0.2-1-0.5-1.7-0.7
							c-1.4-0.6-3.3-1.1-5.4-1.7l0.9-7.5c1.6,0.2,3.2,0.5,4.9,0.7c1.7,0.3,3.4,0.6,5,0.9c1.6,0.4,3.2,0.7,4.6,1.1
							C274.9,165.6,276.2,165.9,277.2,166.2z"/>
						<path d="M225.7,339.5c0.6,0-0.4-1-1.6-2.3c-1.1-1.4-2.6-2.9-3.2-3.9c-0.7-0.7-1.4-1.3-2-2c-2.3-2.8-3.3-4.3-3.8-4.5
							c-0.4-0.2-0.2,0.9,0.9,3c0.8,0.5,2.2,2.5,4,4.4C221.9,336.2,224.1,338.2,225.7,339.5z"/>
						<path d="M284.1,341l-0.7,1c3-1.3,5.9-2.7,8.7-4.2c-0.2-0.2-1.3,0.4-2.9,1c-0.8,0.3-1.6,0.7-2.5,1.1
							C285.8,340.3,284.9,340.7,284.1,341z"/>
						<path d="M280.3,249.9c-1,0.7-1.9,1.4-2.8,2c-0.9,0.5-1.8,1-2.6,1.5c-0.4,0.2-0.8,0.5-1.2,0.7c-0.4,0.2-0.8,0.4-1.2,0.6
							c-0.8,0.3-1.6,0.7-2.4,1c-0.8,0.4-1.6,0.6-2.5,0.9c-0.9,0.3-1.7,0.6-2.7,0.9c-1,0.2-2,0.5-3,0.8c-0.5,0.1-1.1,0.3-1.7,0.4
							s-1.2,0.2-1.8,0.3l2.2,0.9c5.1-0.8,10.3-2.3,15.3-4.9s9.8-6.3,13.8-11.2c1-1.9,0.9-2.1,0.2-1.5c-0.4,0.3-0.8,0.9-1.5,1.5
							c-0.6,0.6-1.4,1.4-2.1,2.1c-0.7,0.8-1.6,1.5-2.4,2.1s-1.5,1.2-2.1,1.7C280.4,250.5,279.7,250.8,280.3,249.9z"/>
						<path d="M260.7,256.8c1-0.3,2.1-0.7,3.1-1c1-0.3,2-0.8,3.1-1.2l1.5-0.6l1.5-0.8l1.5-0.7c0.5-0.2,1-0.5,1.5-0.8
							c3.9-2.2,7.5-5,10.6-8.2c3.2-3.1,5.6-6.9,7.4-10.6c0.4-0.9,0.8-1.9,1.2-2.8c0.3-0.9,0.6-1.9,0.9-2.8c0.1-0.5,0.3-0.9,0.4-1.4
							s0.2-0.9,0.2-1.4c0.1-0.9,0.3-1.8,0.4-2.7c-0.5,0.4-1,1.1-1.4,2c-0.2,0.5-0.4,1-0.7,1.6c-0.3,0.6-0.6,1.2-0.8,1.9
							c-0.3,0.7-0.5,1.4-0.9,2.1c-0.4,0.7-0.7,1.5-1.1,2.3c-0.2,0.4-0.4,0.8-0.6,1.2s-0.5,0.8-0.7,1.2c-0.5,0.8-0.9,1.6-1.4,2.5
							c-2.1,3.2-4.6,6.4-7.4,9l-0.5,0.5l-0.5,0.4c-0.4,0.3-0.7,0.6-1.1,0.8c-0.7,0.5-1.4,1.1-2.1,1.5s-1.4,0.8-2.1,1.2
							s-1.3,0.7-1.9,0.9c-1.5,0.8-2.9,1.7-4.3,2.2c-1.4,0.6-2.7,1.2-4.1,1.6c-0.7,0.2-1.5,0.5-2.2,0.7c-0.8,0.3-1.6,0.3-2.4,0.5
							c-0.9,0.2-1.8,0.4-2.7,0.5c-1,0.1-2,0.2-3.1,0.3c-0.4,0.1-0.7,0.1-1,0.2l-2.8,0.5l0.3,2.1c0,0.1,0,0.2,0,0.3l2.5-2.5
							c-1.2,0.2-1,0.4,0,0.4l-2.1,2.1c0-0.1,0-0.2,0-0.3l0.2-2.1l1.8,0.1c1.1,0.1,2.8,0.1,4.7,0.1c0.9-0.1,1.9-0.2,2.7-0.3
							C259.2,257,260,257,260.7,256.8z"/>
						<path d="M296.1,217.6c0.2-1.9,0.1-4,0.1-5.1c-0.2-1.3-0.6,2.1-0.9,3.7c0,0.2,0,0.5,0,0.8s0,0.6-0.1,0.9c0,0.6,0,1.2,0,1.6
							C295.3,220.3,295.5,220.2,296.1,217.6z"/>
					</g>
				</g>
			</g>
		</g>
		<g>
			<path class="st0" d="M270.2,306.7c0-10.7-8.6-19.3-19.3-19.3s-19.3,8.6-19.3,19.3c0,10.7,8.6,19.3,19.3,19.3
				C261.5,326,270.2,317.3,270.2,306.7z"/>
			<path class="st0" d="M254.5,284.3l-0.6-0.1c0.5,0.1,1,0.1,1.4,0.2c0.5,0.1,0.9,0.3,1.4,0.4c1,0.3,1.9,0.7,2.8,1.1
				c-1.7-1.4-4-2.5-6.3-2.8c-1.2-0.1-2.3-0.1-3.3,0.2c-0.5,0.1-1,0.3-1.5,0.6c-0.4,0.3-0.9,0.6-1.2,1c-0.1-0.3-0.5-0.5-1-0.7
				c-0.5-0.1-1.1-0.2-1.7-0.2c-1.2,0-2.3,0.4-2.3,0.6c-0.8,0.5-1.5,1.2-2.2,1.7c0.5-0.4,1-0.7,1.6-1.1c-0.5,0.4-1,0.7-1.6,1.1
				c-2.3,1.8-4.5,3.7-6.4,6c-2,2.3-3.7,4.9-4.8,8c-0.7,1.7-1.4,5-1.3,8.4c0,0.8,0.1,1.7,0.2,2.5c0.1,0.8,0.3,1.6,0.4,2.4
				c0.4,1.5,0.8,2.8,1.1,3.7c0.2,0.5,0.4,1,0.7,1.5c-0.4-0.9-0.3-0.9-0.6-1.8c1.3,2,2.8,3.4,4.2,4.8c-0.1-0.4,0-0.5-0.3-1.3
				c0.2,0.3,0.3,0.6,0.5,0.8c0.5,0.2,1.1,0.6,1.6,1.1c0.6,0.4,1.2,0.9,1.6,1.1c-0.3,0.1,0.2,0.6,0.7,1l-0.1-0.3
				c1.9,1.6,4.6,2.8,6.7,3.4c0.3,0.1,0.5,0.2,0.6,0.4c0.7,0.1,1.4,0.2,2.1,0.3c-0.2,0.4,1.7,0.6,0.7,0.7c0.4-0.1,0.8,0,1.2-0.1
				c0.4,0,0.8,0,1.2,0c0.8,0,1.6-0.1,2.3-0.4c2.7-0.2,5.4-1,7.8-2.3s4.5-3.2,6.1-5.4H266c0.3-0.4,0.5-0.8,0.7-1.2
				c0.2-0.4,0.4-0.8,0.5-1.2c0.2-0.4,0.4-0.8,0.6-1.3c0.2-0.4,0.5-0.8,0.8-1.3c0.1-0.4,0.1-0.8,0.2-1.3c0.1-0.4,0.1-0.9,0.1-1.3
				c0.1-0.8,0-1.5-0.3-1.9c0.2-0.8,0.1-1.4,0.1-2c0-0.3-0.1-0.6-0.1-0.9c-0.1-0.3-0.1-0.6-0.1-1c-0.2,0.2-0.3-0.2-0.4-0.5
				s-0.2-0.7-0.3-0.2c-0.6,1-0.1,1-0.6,1.8h0.1c-1,3.7-3,6.9-5.7,9.2c-1.5,1.9-4,3.1-6.3,3.9c-2.5,0.9-5.6,1.2-8,0.9
				c-0.6-0.1-0.9-0.4-1.3-0.8c-2.1-0.5-4.5-2.1-6.4-3.7l0.1,0.1c-1-0.9-1.3-1.9-2-3c-0.1,0.1-0.2-0.1-0.3-0.2
				c0.2-0.2-1.1-1.7-1.9-3.5c-0.9-1.8-1.3-3.9-1.2-4.1c0-0.1-0.1-0.3-0.1-0.4c0-0.7,0.2-1.4,0.4-2.1c0.3-0.7,0.4-1.4,0.8-2
				c0.1-0.3,0.3-0.6,0.4-0.9c0.2-0.3,0.3-0.6,0.5-0.8c0.3-0.6,0.6-1.1,0.8-1.6c0-0.6,0.1-1.1,0.1-1.7c0.4-0.2,0.1-0.5,0.5-0.9
				c0.8-0.2,1.2-0.5,1.4-0.7s0-0.4-0.3-0.2c0.6-0.9,1.4-1.6,2.2-2.2c0.3-0.3,0.6-0.7,0.9-1c0.3-0.3,0.5-0.3,0.8-0.1
				c0.7-0.6,0.6-0.3,1.6-0.6c0.2,0.1,0.7-0.3,1.2-0.7c0.3-0.2,0.5-0.4,0.8-0.5c0.2-0.1,0.4-0.2,0.5-0.2l-0.1,0.1
				c1.2-0.3,2,0.3,3.1,0.2c1.5,0,3.1,0.1,4.6,0.4s3,0.8,4.2,1.5c0.2-0.3-0.6-0.2-0.4-0.7c1.5,0.8,2.6,2.1,3.8,3.3
				c0.2,0.3,0.2,0.7,0.2,0.9c0.2,0.5,0.3,0.1,0.6,0.4l-0.2,0.3c0.6,0.2,0.2,0.9,0.6,1.2c0.1-0.1,0.3,0.1,0.4,0.2
				c-0.3,0.2,0.3,0.5,0,0.6l0,0c0,0.1,0.1,0.1,0.1,0.3c0.1,0,0.6,0.3,1.1,0.7c0.3,0.2,0.5,0.4,0.7,0.5c0.2,0.2,0.3,0.3,0.4,0.3v0.1
				c0.1,0.3,0.4,0.3,0.4,0.1l0.1,0.4l0,0l0.1,0.4c0,0.1-0.2,0.2-0.3,0.1c0.2,0.2,0.3,0.4,0.3,0.6c0.1-0.6,0.1-1.4,0.2-2.2
				c0.2,0.2,0.2,0.7,0.3,1c-0.1,0.4-0.2,1.1-0.2,1.7c0,0.1,0.5,0.1,0.3,0.4c-0.3,0.2,0.1,0.3-0.1,0.6c-0.2-0.2-0.1-0.5-0.2-0.7
				c-0.3,0.1-0.1,0.7-0.2,0.9c0.1,0.1,0.1,0.6,0.2,0.9c-0.3-0.1-0.2,0.3-0.4,0.5c0,0.2,0.1,0.3,0.2,0.2c0.4,0.1,0.2-0.8,0.5-0.6
				c-0.2,0.1-0.1,0.5-0.1,0.7c0.2,0,0.1-0.2,0.3,0c0,0.3,0.2,0.5,0,0.7c-0.1,0,0-0.2,0-0.2c0,0.2-0.3-0.3-0.7-0.7
				c-0.3-0.4-0.6-0.8-0.5-0.6c0.2-0.2,1.2,1.7,1.2,1.5c0.1-0.2,0.4,0.1,0.4-0.1l-0.2-0.2c0.1-0.3,0.4-0.4,0.5-0.3
				c0,0.5-1.4-1.3-1.2-0.9c0-0.1,0.1-0.1,0.1-0.2c0.1,0.2,0.3,0.6,0.1,0.8c0.2,0,0.3,0.2,0.3,0.4v0.1c0.1,0.2,0.1,0.5,0.3,0.3
				c0-0.6,0.4-0.4,0.9-0.2c0.5,0.2,1,0.4,1.1-0.2c-0.4,0.5-0.4-0.2-0.5-0.7c0.1-0.1,0.3-0.3,0.4-0.7c-0.1-0.3-0.2-0.2-0.3-0.2
				c0.1-0.2,0.1-0.6,0.3-0.6c-0.3-0.2,0.1-0.5,0-0.8c-0.2-0.3-0.1,0-0.3-0.1c-0.1-0.4-0.2-1-0.2-1.4c0.2-0.2,0.4-0.7,0.8-0.5
				c0.1,0.7-0.6-0.1-0.3,0.6c0.4-0.4,0.3,0.6,0.7,0.6c0.1-0.3,0-0.7-0.1-1.1v0.1c-0.1-0.3-0.5-0.9-0.4-1.4c0.2,0,0.2-0.2,0.4,0.1
				l-0.1-0.5c-0.1,0-0.1-0.1-0.1,0.1c-0.2-0.2-0.2-0.4-0.2-0.6c0.1-0.1-1.8-2-1.7-1.9c-0.2-0.3,0-0.5-0.3-0.7c-0.1,0,0.5,0.6,1,1.2
				s1,1.2,0.8,1c0-0.2-0.6-1-1.2-1.7c-0.3-0.4-0.7-0.7-0.9-1c-0.3-0.3-0.4-0.5-0.4-0.6c-0.2-0.2-0.4-0.4-0.5-0.3
				c-0.2-0.4,0.3-0.1,0.3-0.4c0,0-0.1,0.1-0.1,0v-0.4c-0.6-0.3-1-1.3-1.8-1.6c0.3,0,0.7-0.1,1.1,0.2v0.1c0.1,0,0.4,0.3,0.5,0.1
				c-0.2-0.4-0.5-0.7-0.9-0.9c0-0.1-0.1-0.2-0.1-0.3c0,0,0,0,0,0.1c0-0.2,0-0.2,0.1-0.2c0,0,0,0,0.1,0c0.1-0.6-1.5-1-2-1.6
				c-0.2-0.1-0.1,0.1-0.4,0c-0.5-0.7-1-1.1-1.7-1.7c-0.4,0-0.4,0.1-0.2,0.5c-0.2-0.1-0.4-0.3-0.5-0.4c0.8-0.3-0.9-1.1,0-1.3
				c-0.1-0.2-0.5-0.4-0.9-0.5c-0.1,0.1-0.2,0.3-0.7,0.1c-0.6-0.4-0.4-0.3-0.9-0.7c-0.1-0.2,0.2-0.2,0.2-0.4
				c-0.9-0.1-0.6-0.7-1.5-0.8c-0.5-0.1-1.6-0.3-1.7,0C254.3,284.8,254.3,284.6,254.5,284.3z"/>
		</g>
		<g>
			<path d="M231.4,212.5c0,10.8,8.7,19.5,19.5,19.5c10.8,0,19.5-8.7,19.5-19.5s-8.7-19.5-19.5-19.5S231.4,201.7,231.4,212.5z"/>
			<path d="M247.3,235.1l0.6,0.1c-0.5-0.1-1-0.1-1.5-0.2c-0.5-0.1-1-0.3-1.4-0.4c-1-0.3-1.9-0.7-2.8-1.1c1.8,1.4,4.1,2.5,6.4,2.9
				c1.2,0.1,2.3,0.1,3.4-0.2c0.5-0.2,1-0.3,1.5-0.6s0.9-0.6,1.2-1c0.1,0.3,0.5,0.6,1,0.7c0.5,0.1,1.1,0.2,1.7,0.2
				c1.2,0,2.3-0.4,2.3-0.6c0.8-0.5,1.5-1.2,2.3-1.7c-0.5,0.4-1,0.7-1.6,1.1c0.5-0.4,1.1-0.7,1.6-1.1c2.3-1.8,4.5-3.8,6.5-6.1
				s3.7-5,4.9-8c0.7-1.7,1.4-5,1.3-8.5c0-0.9-0.1-1.7-0.2-2.5s-0.3-1.6-0.4-2.4c-0.4-1.5-0.8-2.8-1.1-3.7c-0.2-0.5-0.4-1.1-0.7-1.6
				c0.4,0.9,0.3,0.9,0.6,1.8c-1.3-2-2.8-3.5-4.2-4.8c0.1,0.4,0,0.5,0.3,1.3c-0.2-0.3-0.3-0.6-0.5-0.9c-0.5-0.2-1.1-0.6-1.7-1.1
				c-0.6-0.4-1.2-0.9-1.6-1.1c0.3-0.1-0.2-0.6-0.7-1l0.1,0.3c-1.9-1.7-4.6-2.8-6.8-3.5c-0.3-0.1-0.5-0.3-0.6-0.4
				c-0.7-0.1-1.4-0.3-2.1-0.3c0.2-0.4-1.7-0.6-0.7-0.7c-0.4,0.1-0.8,0-1.2,0.1c-0.4,0-0.8,0-1.2,0c-0.8,0-1.6,0.1-2.3,0.4
				c-2.7,0.2-5.5,1-7.9,2.3c-2.5,1.3-4.6,3.2-6.2,5.4h0.2c-0.3,0.4-0.5,0.8-0.7,1.2s-0.4,0.8-0.6,1.3c-0.2,0.4-0.4,0.8-0.6,1.3
				c-0.2,0.4-0.5,0.9-0.8,1.3c-0.1,0.4-0.1,0.8-0.2,1.3c-0.1,0.4-0.1,0.9-0.1,1.3c-0.1,0.8,0,1.6,0.3,1.9c-0.2,0.8-0.1,1.4-0.1,2
				c0,0.3,0.1,0.6,0.1,0.9c0.1,0.3,0.1,0.7,0.1,1c0.2-0.2,0.3,0.2,0.4,0.5c0.1,0.3,0.2,0.7,0.3,0.2c0.6-1,0.1-1,0.6-1.8h-0.1
				c1-3.7,3-6.9,5.8-9.3c1.5-1.9,4-3.2,6.4-3.9c2.6-0.9,5.7-1.2,8.1-0.9c0.6,0.1,0.9,0.4,1.3,0.8c2.2,0.5,4.6,2.1,6.5,3.7l-0.1-0.1
				c0.5,0.5,0.8,1,1.1,1.5c0.3,0.5,0.6,1,0.9,1.5c0.1-0.1,0.2,0.1,0.3,0.2c-0.2,0.2,1.1,1.7,1.9,3.5c0.9,1.8,1.3,3.9,1.2,4.1
				c0,0.1,0.1,0.3,0.1,0.4c0,0.7-0.2,1.4-0.4,2.1c-0.3,0.7-0.4,1.4-0.8,2c-0.1,0.3-0.3,0.6-0.4,0.9c-0.2,0.3-0.3,0.6-0.5,0.9
				c-0.3,0.6-0.6,1.1-0.8,1.6c0,0.6-0.1,1.2-0.1,1.7c-0.4,0.2-0.1,0.6-0.5,0.9c-0.8,0.2-1.2,0.5-1.4,0.7c-0.2,0.2,0,0.4,0.3,0.2
				c-0.6,0.9-1.5,1.6-2.2,2.2c-0.3,0.3-0.6,0.7-0.9,1s-0.6,0.3-0.8,0.1c-0.7,0.6-0.6,0.3-1.6,0.6c-0.2-0.1-0.7,0.3-1.2,0.7
				c-0.3,0.2-0.5,0.4-0.8,0.6c-0.2,0.1-0.4,0.2-0.5,0.2l0.1-0.1c-1.2,0.3-2.1-0.3-3.2-0.2c-1.5,0-3.1-0.1-4.7-0.4
				c-1.5-0.3-3-0.8-4.2-1.5c-0.2,0.3,0.6,0.2,0.4,0.7c-1.5-0.8-2.7-2.2-3.8-3.4c-0.2-0.3-0.2-0.7-0.2-0.9c-0.2-0.5-0.3-0.1-0.6-0.4
				l0.2-0.3c-0.6-0.2-0.2-0.9-0.6-1.2c-0.1,0.1-0.3-0.1-0.4-0.2c0.3-0.2-0.3-0.5,0-0.6l0,0c-0.1-0.1-0.1-0.1-0.1-0.3
				c-0.1,0-0.6-0.4-1.1-0.7c-0.3-0.2-0.5-0.4-0.7-0.5c-0.2-0.2-0.3-0.3-0.4-0.3v-0.1c-0.1-0.3-0.4-0.3-0.4-0.1l-0.1-0.4l0,0
				l-0.1-0.4c0-0.1,0.2-0.2,0.3-0.1c-0.2-0.2-0.3-0.4-0.3-0.6c-0.1,0.6-0.1,1.4-0.3,2.2c-0.2-0.2-0.2-0.7-0.3-1
				c0.1-0.4,0.2-1.2,0.2-1.7c0-0.1-0.5-0.1-0.4-0.4c0.3-0.2-0.1-0.3,0.1-0.6c0.2,0.2,0.1,0.5,0.2,0.8c0.3-0.1,0.1-0.7,0.2-0.9
				c-0.1-0.1-0.1-0.6-0.2-0.9c0.3,0.1,0.2-0.3,0.4-0.5c0-0.2-0.1-0.3-0.2-0.2c-0.4-0.1-0.2,0.9-0.6,0.6c0.2-0.1,0.1-0.5,0.1-0.7
				c-0.2,0-0.1,0.2-0.3,0c0-0.3-0.2-0.5,0-0.7c0.1,0,0,0.2,0,0.2c0-0.2,0.3,0.3,0.7,0.7c0.3,0.4,0.6,0.8,0.5,0.6
				c-0.2,0.2-1.2-1.8-1.2-1.6c-0.1,0.2-0.4-0.2-0.4,0.1l0.2,0.2c-0.1,0.3-0.4,0.4-0.5,0.3c0-0.5,1.4,1.3,1.2,0.9
				c0,0.1-0.1,0.1-0.1,0.2c-0.1-0.2-0.3-0.6-0.1-0.8c-0.2,0-0.3-0.2-0.3-0.4v-0.1c-0.1-0.2-0.1-0.5-0.3-0.4c0,0.6-0.4,0.4-1,0.2
				c-0.5-0.2-1-0.4-1.1,0.2c0.4-0.6,0.4,0.2,0.5,0.7c-0.1,0.1-0.3,0.3-0.4,0.8c0.1,0.4,0.2,0.2,0.3,0.2c-0.1,0.2-0.1,0.6-0.3,0.6
				c0.3,0.2-0.1,0.5,0,0.8c0.2,0.3,0.1,0,0.3,0.1c0.1,0.4,0.2,1,0.2,1.4c-0.2,0.2-0.4,0.7-0.8,0.5c-0.1-0.7,0.6,0.1,0.3-0.6
				c-0.4,0.4-0.3-0.6-0.7-0.6c-0.2,0.3,0,0.7,0.1,1.1v-0.1c0.1,0.3,0.5,1,0.4,1.4c-0.2,0-0.2,0.2-0.4-0.1l0.1,0.5
				c0.1,0,0.1,0.1,0.1-0.1c0.2,0.2,0.2,0.4,0.2,0.6c-0.1,0.1,1.8,2,1.7,2c0.2,0.3,0,0.5,0.3,0.7c0.1,0-0.5-0.6-1-1.3
				c-0.5-0.6-1-1.2-0.8-1c0,0.2,0.6,1,1.3,1.8c0.3,0.4,0.7,0.7,0.9,1c0.3,0.3,0.4,0.5,0.4,0.6c0.2,0.2,0.4,0.4,0.5,0.3
				c0.2,0.4-0.3,0.1-0.3,0.5c0,0,0.1-0.1,0.1,0v0.4c0.6,0.3,1.1,1.3,1.8,1.6c-0.3,0-0.7,0.1-1.1-0.2v-0.1c-0.1,0-0.4-0.3-0.5-0.1
				c0.2,0.4,0.5,0.7,1,0.9c0,0.1,0.1,0.2,0.1,0.3c0,0,0,0,0-0.1c0,0.2,0,0.2-0.1,0.2c0,0,0,0-0.1,0c-0.1,0.6,1.5,1,2.1,1.7
				c0.2,0.1,0.1-0.1,0.4,0c0.5,0.7,1,1.1,1.7,1.7c0.4,0,0.4-0.1,0.2-0.5c0.2,0.1,0.4,0.3,0.5,0.4c-0.8,0.3,0.9,1.1,0,1.3
				c0.1,0.2,0.5,0.4,0.9,0.5c0.1-0.1,0.2-0.3,0.7-0.1c0.6,0.4,0.4,0.3,0.9,0.7c0.1,0.2-0.2,0.2-0.2,0.4c0.9,0.1,0.6,0.7,1.5,0.9
				c0.5,0.1,1.6,0.3,1.7,0C247.4,234.6,247.4,234.9,247.3,235.1z"/>
		</g>
	</g>
	<g>
		<path class="st2" d="M407.4,360.6c-0.7-0.3-1.3-0.7-2-1s-1.4-0.5-2.1-0.8c-0.6-0.2-1.2-0.3-1.7-0.5c-0.6-0.1-1.1-0.2-1.6-0.2
			l1.2,0.5c0.4,0.2,0.8,0.4,1.2,0.6c0.9,0.4,1.7,0.8,2.5,1.2c2.6,1,4.2,1.7,4.9,2.2c0.5,0.1,1.1,0.2,1.9,0.4
			c-0.1-0.1-0.3-0.2-0.4-0.3c-0.6-0.4-1.3-0.8-1.9-1.1C408.7,361.3,408.1,360.9,407.4,360.6z"/>
		<path class="st2" d="M409.5,363.2c0.8,0.3,1.9,0.5,0.3-0.6C407.8,362.3,408.6,362.9,409.5,363.2z"/>
		<path class="st2" d="M403.7,358.4l-0.1-0.1C403.6,358.4,403.7,358.4,403.7,358.4C403.7,358.4,403.7,358.4,403.7,358.4z"/>
		<path class="st2" d="M349.8,412.5c-0.3-0.8-0.6-1.7-0.9-2.5l-0.1-0.3l0.1,0.4C349.2,410.9,349.5,411.8,349.8,412.5z"/>
		<path class="st2" d="M346.5,396.3C346.5,396.4,346.4,396.4,346.5,396.3c-0.1,0.5-0.1,0.8,0,1.2c0,0.1,0,0.2,0,0.2
			c0-0.1,0-0.2,0-0.3C346.5,397,346.5,396.7,346.5,396.3z"/>
		<path class="st2" d="M403.7,358.4c0.1,0.1,0.1,0.1,0.2,0.1C403.8,358.5,403.8,358.4,403.7,358.4z"/>
		<path class="st2" d="M418.4,378.9c-2.6-4.4-6.2-8.3-10.1-11.5l-0.2-0.1c-0.5-0.2-1-0.5-1.6-0.8c-0.5-0.3-1.2-0.5-1.8-0.9
			c-0.6-0.3-1.2-0.6-1.9-0.9c-0.7-0.3-1.3-0.6-2-0.8c-1.3-0.6-2.8-1-4.2-1.4c-1.4-0.4-2.9-0.5-4.2-0.7c-5.3-0.1-10.5,0.4-15.2,2.3
			c0.5-0.1,1-0.2,1.5-0.3c-0.7,0.2-1.3,0.5-2,0.7c-1.5,0.4-3,0.9-4.5,1.5c0.2-0.1,0.4-0.2,0.6-0.3c1.2-0.5,2.5-1.1,3.9-1.4
			c-0.6-0.2,0.9-0.4,0.8-0.7c0.3-0.2,0.6-0.4,1-0.5l1.1-0.4c0.7-0.3,1.4-0.5,2.1-0.8c1.5-0.4,2.9-0.8,4.2-1c1.1-0.1,2.1-0.2,3.2-0.2
			c1,0.1,2.1,0.2,3.1,0.3c1,0,2,0.3,3,0.4c0.5,0.1,1,0.1,1.5,0.2c0.5,0.1,1,0.2,1.5,0.2c0.6,0.1,1.4,0.3,2.2,0.6
			c0.8,0.4,1.6,0.8,2.4,1.1c0.7,0.1,1.4,0.4,2.1,0.7c-0.7-0.5-1.4-1-2.1-1.4c-0.2-0.2,3.1,1.1,6.1,3.1c1.6,0.9,3,2,4.1,2.8
			c1.1,0.8,1.8,1.3,1.8,1.1c0,0-0.2-0.1-0.4-0.4c-0.2-0.3-0.6-0.7-1.1-1.1c-1.1-0.8-2.4-2.1-4.2-3.2c-0.4-0.3-0.8-0.6-1.3-0.9
			c-0.5-0.2-1-0.5-1.5-0.8c-1.1-0.5-2.1-1.1-3.2-1.6c-2.2-1.1-4.5-1.9-6.6-2.5c-0.8-0.5-0.3-1,0.6-1.3c0.8-0.4,2.1-0.4,2.7-0.3
			c0.2,0,0.3,0,0.5,0c-1.3-0.5-2.6-1.1-3.9-1.4c-1.1-0.2-2.2-0.4-3.3-0.5l-3.3-0.3c-0.9,0-1.8,0-2.7,0c-0.8,0-1.7,0-2.6,0.1
			c-1.7,0.2-3.5,0.4-5.2,0.8c0.9-0.3,1.9-0.6,2.8-0.8c0.5-0.1,0.9-0.2,1.4-0.3c1.9-0.5,4-0.5,6.2-0.4c1.1,0.2,2.3,0.3,3.4,0.5
			c0.6,0.1,1.1,0.2,1.7,0.4c0.6,0.2,1.1,0.3,1.7,0.5c0.7,0.2,1.3,0.2,1.9,0.4l1.8,0.5l1.8,0.5l1.7,0.6c-0.6-0.3-1.3-0.6-1.9-0.8
			l-2.3-0.9c-1.5-0.6-3.1-1-4.6-1.4c-5.8-0.9-11.7-0.6-17.4,0.8c0.9-0.3,1.9-0.6,2.8-0.9c4-1.3,9.3-1.3,14.6,0
			c5.5,0.9,10.9,2.7,15.7,5.4c-3.2-2-6.9-4.1-10.5-5.1c-1.8-0.6-3.6-0.8-5.4-1.2c-0.9-0.2-1.8-0.2-2.7-0.3c-0.8-0.1-1.7-0.2-2.6-0.2
			c-3.5-0.1-7,0.2-10.3,0.9c-5.7,1.2-10.9,3.4-15.4,6.6c0.5-0.3,0.9-0.7,1.4-1.1c-0.5,0.3-1.6,0.9-2.1,1.2l-0.8,0.8
			c0.5-0.3,1-0.6,1.5-0.9c-0.7,0.5-1.3,0.9-1.9,1.4c0.1-0.2,0.3-0.3,0.4-0.4c-5.7,3.5-10.3,8.9-12.5,14.5c-0.5,1.1-0.8,2.9-1.3,4
			c-2.2,5.1-2.8,10.5-2.5,15.5c-0.1-2.4,0.1-4.9,0.5-7.4c0,0.2,0,0.3,0,0.5c0.1,0.4,0.1,0.7,0.1,1.1c0,0.8,0,1.5,0,2.3
			c0,0.7,0.1,1.5,0.1,2.3c0,0.4,0,0.9,0,1.3c2-1.5,1.2,5.1,3.4,12.1c1.2,3.7,3.1,7.3,5.3,10c0.5,0.6,1.1,1.2,1.6,1.8
			c0.5,0.6,1.1,1,1.6,1.4c0.6,0.3,1,0.7,1.5,0.9s0.9,0.4,1.3,0.4c0.1,0.7-0.5,0.8-1.4,0.5c-0.9-0.3-2.1-1.2-3.4-2.3
			c-2.4-2.3-4.9-5.8-5.7-7.8c-0.6-1.2-1-2.6-1.5-3.9c-0.3-0.7-0.5-1.4-0.7-2.1s-0.4-1.4-0.6-2.1s-0.3-1.5-0.5-2.2
			c-0.1-0.7-0.3-1.5-0.4-2.2c-0.1-0.7-0.2-1.5-0.3-2.2c-0.1-0.3-0.1-0.6-0.2-0.9c0.1,0.7,0.1,1.5,0.2,2.2c0,0.5,0.1,0.9,0.1,1.3
			c0.1,0.5,0.1,0.9,0.2,1.3c0.1,0.5,0.2,1.1,0.3,1.6c-0.6-2.7-1-5.5-1.2-8.2c0.1,3.8,0.7,7.5,1.8,11c0,0.2,0.1,0.4,0.1,0.6l0.4,1.3
			l0.4,0.9l-0.1-0.2c1.6,4.4,4,8.4,7,12c2.9,3.4,6.3,6.1,10,8c3.7,2,7.6,3.3,11.6,3.8c0.8,0.2,1.6,0.2,2.4,0.3s1.6,0.3,2.4,0.3
			c1.6,0.1,3.2,0.3,4.8,0.2c-0.3,0.2-0.5,0.3-0.8,0.4c1,0,2-0.1,3-0.1c1-0.1,2-0.2,3-0.4c1-0.1,1.9-0.4,2.9-0.7
			c0.5-0.1,1-0.3,1.5-0.4c0.4-0.2,0.9-0.4,1.4-0.6c0.3-0.1,0.7-0.3,1-0.4c3.9-1.8,7.2-4,10.1-6.6c2.9-2.6,5.4-5.7,7.6-9.3
			c0.3-0.5,0.6-0.9,0.8-1.4l0.6-1.4l0.6-1.4c0.2-0.5,0.3-1,0.5-1.5c0.4-1.5-1.4,0.5-0.7-1.9c-0.1,0.1-0.2,0.2-0.3,0.3
			c-0.2,0.9-0.4,1.8-0.6,2.5c-0.3,0.6-0.5,1.1-0.8,1.3c-0.5,0.1-0.4-0.6-0.2-1.7c0-0.1,0-0.1,0-0.2c1.7-4,2.6-8.4,2.6-13
			c0-2.7-0.3-5.4-0.9-7.9c0.5,0.5,1,1,1.4,1.5c-0.1-0.5-0.2-1-0.3-1.5c-0.2-0.5-0.3-0.9-0.5-1.4c-0.3-0.9-0.6-1.8-1-2.6
			c0.1,0.2,0.2,0.1,0.3,0.1c-0.5-1.3-0.9-2.4-1.5-3.4c-0.6-1.1-1.1-2.1-1.9-3.3c2.8,3,4.7,7.8,5.5,12.7c0.2,0.2,0.5,0.4,0.7,0.6
			c-0.3-3.1-1.1-6.1-2.3-8.9c1.5,3.3,2.4,6.8,2.9,10.3c0.5,0.2,1,0.2,1.5-0.2C422.7,388.4,421,383.4,418.4,378.9z M390.1,363.7
			c0.6,0,1.3,0.1,2,0.1c0.2,0,0.4,0.1,0.6,0.1c0.2,0.1,0.5,0.1,0.7,0.2c-1.5-0.2-3-0.3-4.6-0.4c-0.1,0-0.3,0-0.4-0.1
			C389,363.6,389.5,363.7,390.1,363.7z M405.4,370.3c0.1,0,0.1,0.1,0.2,0.1C405.6,370.4,405.5,370.4,405.4,370.3
			C405.5,370.3,405.5,370.3,405.4,370.3z M371.2,358.3c-0.6,0.3-1.3,0.7-2,1C369.9,358.9,370.5,358.7,371.2,358.3z M362.8,367.5
			c1.1-1.2,2.5-2.1,3.9-3.1c0.7-0.5,1.5-0.9,2.2-1.3l1.1-0.6c0.4-0.2,0.8-0.3,1.2-0.5l2.4-1c0.8-0.3,1.7-0.5,2.5-0.8
			c0.6-0.2,1.1-0.5,1.7-0.6c1.3-0.3,2.4-0.5,3.5-0.5c0.2-0.1,0.3-0.1,0.5-0.1c-0.1,0.1-0.2,0.1-0.3,0.1c1.6,0.1,3.2,0.1,5.1,0.4
			l0.6-0.1v0.5c-0.6,0.2-1.3,0.2-1.9,0.3c-0.6,0.1-1.2,0.2-1.9,0.3c-0.7,0.1-1.3,0.1-2,0.2c-0.7,0.1-1.3,0.2-2,0.3
			c-0.6,0.1-1.3,0.2-2,0.3l-2,0.5c-1.3,0.3-2.6,0.8-3.8,1.4c-3.1,1.6-6.1,3.5-8.7,5.9c-0.7,0.6-1.3,1.3-1.9,1.9
			c-0.6,0.7-1.2,1.3-1.7,2s-1,1.4-1.5,2.1c-0.4,0.7-0.8,1.5-1.2,2.2c-0.5,0.9-1.4,2.1-2,2.9c0.4-0.8,0.7-1.6,1-2.4
			c0.4-0.8,0.7-1.5,1.1-2.3c0.4-0.8,0.8-1.6,1.3-2.3c0.5-0.7,1-1.5,1.6-2.2c0.4-0.4,0.9-0.6,1.2-0.8c0.6-1.1,1.7-2.2,3-3.2
			c1.7-1.2,3.5-2.4,5.3-3.4c-3.4,1.7-6.5,4-8.7,6.4c0.2-0.3,0.5-0.6,0.7-0.8C361.6,368.6,362.2,368.1,362.8,367.5z M348.8,381.6
			c-0.3,0.8-0.6,1.8-1,2.7c-0.2,0.5-0.4,0.9-0.5,1.4l-0.4,1.4c-0.2,0.6-0.3,0.6-0.6,1.1c0,0.2,0,0.4,0,0.6l-0.1-0.3
			c1.6-9.8,6.7-18.4,14.1-24.6c-0.2,0.3-0.5,0.6-0.7,0.9c-0.3,0.2-0.5,0.5-0.8,0.8s-0.5,0.6-0.8,0.9c-2.5,2.5-5.1,5.7-6.9,8.7
			c0.6-0.3-0.3,1.2-0.2,1.3c-0.3,0.8-0.7,1.6-1,2.5C349.6,379.9,349.2,380.7,348.8,381.6z"/>
		<path class="st2" d="M381.3,359.2c-0.9,0.1-1.7,0.3-2.6,0.5l-1.3,0.3c-0.4,0.1-0.9,0.3-1.3,0.4c-1.2,0.5-2.4,0.8-3.5,1.4
			c-1.2,0.6-2.3,1.1-3.4,1.8c4.2-2.2,8.7-3.4,12.3-4.4H381.3z"/>
	</g>
	<g>
		<path class="st3" d="M144.8,89.8c-0.7-0.3-1.3-0.7-2-1c-0.7-0.3-1.4-0.5-2.1-0.8c-0.6-0.2-1.2-0.3-1.7-0.5
			c-0.6-0.1-1.1-0.2-1.6-0.2l1.2,0.5c0.4,0.2,0.8,0.4,1.2,0.6c0.9,0.4,1.7,0.8,2.5,1.2c2.6,1,4.2,1.7,4.9,2.2
			c0.5,0.1,1.1,0.2,1.9,0.4c-0.1-0.1-0.3-0.2-0.4-0.3c-0.6-0.4-1.3-0.8-1.9-1.1C146.1,90.5,145.5,90.1,144.8,89.8z"/>
		<path class="st3" d="M146.9,92.4c0.9,0.3,1.9,0.5,0.3-0.6C145.2,91.5,146,92.1,146.9,92.4z"/>
		<path class="st3" d="M141.1,87.6l-0.1-0.1C141,87.6,141.1,87.6,141.1,87.6C141.1,87.6,141.1,87.6,141.1,87.6z"/>
		<path class="st3" d="M87.2,141.7c-0.3-0.8-0.6-1.7-0.9-2.5l-0.1-0.3l0.1,0.4C86.6,140.1,86.9,141,87.2,141.7z"/>
		<path class="st3" d="M141.1,87.6c0.1,0.1,0.1,0.1,0.2,0.1C141.2,87.7,141.2,87.6,141.1,87.6z"/>
		<path class="st3" d="M155.9,108.1c-2.6-4.4-6.2-8.3-10.1-11.5l-0.2-0.1c-0.5-0.2-1-0.5-1.6-0.8c-0.5-0.3-1.2-0.5-1.8-0.9
			c-0.6-0.3-1.2-0.6-1.9-0.9c-0.7-0.3-1.3-0.6-2-0.8c-1.3-0.6-2.8-1-4.2-1.4c-1.4-0.4-2.9-0.5-4.2-0.7c-5.3-0.1-10.5,0.4-15.2,2.3
			c0.4-0.1,0.9-0.2,1.3-0.3c-0.6,0.2-1.3,0.5-2,0.7c-1.5,0.4-3,0.9-4.5,1.5c0.2-0.1,0.4-0.2,0.6-0.3c1.2-0.5,2.5-1.1,3.9-1.4
			c-0.6-0.2,0.9-0.4,0.8-0.7c0.3-0.2,0.6-0.4,1-0.5l1.1-0.4c0.7-0.3,1.4-0.5,2.1-0.8c1.5-0.4,2.9-0.8,4.2-1c1.1-0.1,2.1-0.2,3.2-0.2
			c1,0.1,2.1,0.2,3.1,0.3c1,0,2,0.3,3,0.4c0.5,0.1,1,0.1,1.5,0.2c0.5,0.1,1,0.2,1.5,0.2c0.6,0.1,1.4,0.3,2.2,0.6
			c0.8,0.4,1.6,0.8,2.4,1.1c0.7,0.1,1.4,0.4,2.1,0.7c-0.7-0.5-1.4-1-2.1-1.4c-0.2-0.2,3.1,1.1,6.1,3.1c1.6,0.9,3,2,4.1,2.8
			c1.1,0.8,1.8,1.3,1.8,1.1c0,0-0.2-0.1-0.4-0.4s-0.6-0.7-1.1-1.1c-1.1-0.8-2.4-2.1-4.2-3.2c-0.4-0.3-0.8-0.6-1.3-0.9
			c-0.5-0.2-1-0.5-1.5-0.8c-1.1-0.5-2.1-1.1-3.2-1.6c-2.2-1.1-4.5-1.9-6.6-2.5c-0.8-0.5-0.3-1,0.6-1.3c0.8-0.4,2.1-0.4,2.7-0.3
			c0.2,0,0.3,0,0.5,0c-1.3-0.5-2.6-1.1-3.9-1.4c-1.1-0.2-2.2-0.4-3.3-0.5l-3.3-0.3c-0.9,0-1.8,0-2.7,0c-0.8,0-1.7,0-2.6,0.1
			c-1.7,0.2-3.5,0.4-5.2,0.8c0.9-0.3,1.9-0.6,2.8-0.8c0.5-0.1,0.9-0.2,1.4-0.3c1.9-0.5,4-0.5,6.2-0.4c1.1,0.2,2.3,0.3,3.4,0.5
			c0.6,0.1,1.1,0.2,1.7,0.4c0.6,0.2,1.1,0.3,1.7,0.5c0.7,0.2,1.3,0.2,1.9,0.4l1.8,0.5l1.8,0.5l1.7,0.6c-0.6-0.3-1.3-0.6-1.9-0.8
			l-2.3-0.9c-1.5-0.6-3.1-1-4.6-1.4c-5.8-0.9-11.7-0.6-17.4,0.8c0.9-0.3,1.9-0.6,2.8-0.9c4-1.3,9.3-1.3,14.6,0
			c5.5,0.9,10.9,2.7,15.7,5.4c-3.2-2-6.9-4.1-10.5-5.1c-1.8-0.6-3.6-0.8-5.4-1.2c-0.9-0.2-1.8-0.2-2.7-0.3c-0.8-0.1-1.7-0.2-2.6-0.2
			c-3.5-0.1-7,0.2-10.3,0.9c-5.7,1.2-10.9,3.4-15.4,6.6c0.5-0.3,0.9-0.7,1.4-1.1c-0.5,0.3-1.6,0.9-2.1,1.2l-0.8,0.8
			c0.5-0.3,1-0.6,1.5-0.9c-0.5,0.4-1,0.7-1.5,1.1c0,0,0.1-0.1,0.1-0.1c-5.7,3.5-10.3,8.9-12.5,14.5c-0.5,1.1-0.8,2.9-1.3,4
			c-2.2,5.1-2.8,10.5-2.5,15.5c-0.1-2.2,0.1-4.5,0.4-6.8c0.1,0.3,0.1,0.6,0.1,1c0,0.8,0,1.5,0,2.3c0,0.7,0.1,1.5,0.1,2.3
			c0,0.5,0,0.9,0,1.4c2-1.8,1.3,4.8,3.5,12c1.2,3.7,3.1,7.3,5.3,10c0.5,0.6,1.1,1.2,1.6,1.8c0.5,0.6,1.1,1,1.6,1.4
			c0.6,0.3,1,0.7,1.5,0.9s0.9,0.4,1.3,0.4c0.1,0.7-0.5,0.8-1.4,0.5c-0.9-0.3-2.1-1.2-3.4-2.3c-2.4-2.3-4.9-5.8-5.7-7.8
			c-0.6-1.2-1-2.6-1.5-3.9c-0.3-0.7-0.5-1.4-0.7-2.1s-0.4-1.4-0.6-2.1c-0.2-0.7-0.3-1.5-0.5-2.2c-0.1-0.7-0.3-1.5-0.4-2.2
			s-0.2-1.5-0.3-2.2c-0.1-0.4-0.2-0.7-0.2-1.1c-0.1-0.4-0.1-0.7-0.1-1.1c0,0.3,0,0.7,0,1c0.1,0.8,0.1,1.7,0.2,2.5
			c0,0.5,0.1,0.9,0.1,1.3c0.1,0.5,0.1,0.9,0.2,1.3c0.1,0.5,0.2,1.1,0.3,1.6c-0.6-2.7-1-5.5-1.2-8.2c0.1,3.8,0.7,7.5,1.8,11
			c0,0.2,0.1,0.4,0.1,0.6l0.4,1.3l0.4,0.9l-0.1-0.2c1.6,4.4,4,8.4,7,12c2.9,3.4,6.3,6.1,10,8c3.7,2,7.6,3.3,11.6,3.8
			c0.8,0.2,1.6,0.2,2.4,0.3c0.8,0.1,1.6,0.3,2.4,0.3c1.6,0.1,3.2,0.3,4.8,0.2c-0.3,0.2-0.5,0.3-0.8,0.4c1,0,2-0.1,3-0.1
			c1-0.1,2-0.2,3-0.4c1-0.1,1.9-0.4,2.9-0.7c0.5-0.1,1-0.3,1.5-0.4c0.4-0.2,0.9-0.4,1.4-0.6c0.3-0.1,0.7-0.3,1-0.4
			c3.9-1.8,7.2-4,10.1-6.6c2.9-2.6,5.4-5.7,7.6-9.3c0.3-0.5,0.6-0.9,0.8-1.4l0.6-1.4l0.6-1.4c0.2-0.5,0.3-1,0.5-1.5
			c0.4-1.5-1.4,0.5-0.7-1.9c-0.1,0.1-0.2,0.2-0.3,0.3c-0.2,0.9-0.4,1.8-0.6,2.5c-0.3,0.6-0.5,1.1-0.8,1.3c-0.5,0.1-0.4-0.6-0.2-1.7
			c0-0.1,0-0.1,0-0.2c1.7-4,2.6-8.4,2.6-13c0-2.7-0.3-5.4-0.9-7.9c0.5,0.5,1,1,1.4,1.5c-0.1-0.5-0.2-1-0.3-1.5
			c-0.2-0.5-0.3-0.9-0.5-1.4c-0.3-0.9-0.6-1.8-1-2.6c0.1,0.2,0.2,0.1,0.3,0.1c-0.5-1.3-0.9-2.4-1.5-3.4c-0.6-1.1-1.1-2.1-1.9-3.3
			c2.8,3,4.7,7.8,5.5,12.7c0.2,0.2,0.5,0.4,0.7,0.6c-0.4-4-1.6-7.8-3.4-11.3c2.1,4,3.5,8.4,4.1,12.7c0.5,0.2,1,0.2,1.5-0.2
			C160.2,117.6,158.5,112.6,155.9,108.1z M127.5,92.9c0.6,0,1.3,0.1,2,0.1c0.2,0,0.5,0.1,0.8,0.1c0.2,0.1,0.5,0.1,0.7,0.2
			c-1.5-0.2-3.1-0.3-4.7-0.4c-0.1,0-0.3,0-0.4-0.1C126.4,92.8,126.9,92.9,127.5,92.9z M142.8,99.5c0.1,0,0.1,0.1,0.2,0.1
			C143,99.6,142.9,99.6,142.8,99.5C142.9,99.5,142.9,99.5,142.8,99.5z M104.1,93.6c0.7-0.5,1.5-0.9,2.2-1.3l1.1-0.6
			c0.4-0.2,0.8-0.3,1.2-0.5l2.4-1c0.8-0.3,1.7-0.5,2.5-0.8c0.6-0.2,1.1-0.5,1.7-0.6c1.3-0.3,2.4-0.5,3.5-0.5
			c0.2-0.1,0.3-0.1,0.5-0.1c-0.1,0.1-0.2,0.1-0.3,0.1c1.6,0.1,3.2,0.1,5.1,0.4l0.6-0.1v0.5c-0.6,0.2-1.3,0.2-1.9,0.3
			c-0.6,0.1-1.2,0.2-1.9,0.3c-0.7,0.1-1.3,0.1-2,0.2c-0.7,0.1-1.3,0.2-2,0.3c-0.6,0.1-1.3,0.2-2,0.3l-2,0.5
			c-1.3,0.3-2.6,0.8-3.8,1.4c-3.1,1.6-6.1,3.5-8.7,5.9c-0.7,0.6-1.3,1.3-1.9,1.9c-0.6,0.7-1.2,1.3-1.7,2s-1,1.4-1.5,2.1
			c-0.4,0.7-0.8,1.5-1.2,2.2c-0.5,0.9-1.4,2.1-2,2.9c0.4-0.8,0.7-1.6,1-2.4c0.4-0.8,0.7-1.5,1.1-2.3c0.4-0.8,0.8-1.6,1.3-2.3
			c0.5-0.7,1-1.5,1.6-2.2c0.4-0.4,0.9-0.6,1.2-0.8c0.6-1.1,1.8-2.2,3-3.2c1.7-1.2,3.5-2.4,5.3-3.4c-3.4,1.7-6.5,4-8.7,6.4
			c0.2-0.3,0.5-0.6,0.7-0.8c0.5-0.6,1.1-1.1,1.7-1.7C101.3,95.5,102.7,94.6,104.1,93.6z M87.3,108.2c-0.3,0.9-0.7,1.7-1.1,2.6
			c-0.3,0.8-0.6,1.8-1,2.7c-0.2,0.5-0.4,0.9-0.5,1.4l-0.4,1.4c-0.2,0.5-0.3,0.6-0.5,1c1.7-9.4,6.6-17.8,13.7-23.8
			c-0.2,0.2-0.3,0.4-0.5,0.6c-0.3,0.2-0.5,0.5-0.8,0.8s-0.5,0.6-0.8,0.9c-2.5,2.5-5.1,5.7-6.9,8.7c0.6-0.3-0.3,1.2-0.2,1.3
			C88,106.5,87.6,107.3,87.3,108.2z M154.6,109.7c0,0,0.1,0.1,0.1,0.1c0.1,0.1,0.1,0.2,0.2,0.3C154.8,110,154.7,109.8,154.6,109.7z"
			/>
		<path class="st3" d="M118.8,88.4c-0.9,0.1-1.7,0.3-2.6,0.5l-1.3,0.3c-0.4,0.1-0.9,0.3-1.3,0.4c-1.2,0.5-2.4,0.8-3.5,1.4
			c-1.2,0.6-2.3,1.1-3.4,1.8c4.1-2.2,8.6-3.4,12.3-4.4H118.8z"/>
	</g>
	<g>
		<path class="st4" d="M214.8,49.3c-0.2,0.6-0.3,1.2-0.5,1.7c-0.1,0.6-0.2,1.1-0.2,1.6l0.5-1.2c0.2-0.4,0.4-0.8,0.6-1.2
			c0.5-0.9,0.9-1.7,1.2-2.5c1-2.6,1.7-4.2,2.2-4.9c0.1-0.5,0.2-1.1,0.4-1.9c-0.1,0.1-0.2,0.3-0.3,0.4c-0.4,0.6-0.8,1.3-1.1,1.9
			c-0.3,0.7-0.7,1.3-1,2s-0.7,1.3-1,2S215.1,48.6,214.8,49.3z"/>
		<path class="st4" d="M219.3,43.1c0.2-0.9,0.4-1.9-0.6-0.3C218.4,44.8,219,44,219.3,43.1z"/>
		<path class="st4" d="M268.5,102.8c-0.8,0.3-1.7,0.6-2.5,0.9l-0.3,0.1l0.4-0.1C266.9,103.4,267.8,103.1,268.5,102.8z"/>
		<path class="st4" d="M214.4,48.9c0.1-0.1,0.1-0.1,0.1-0.2C214.5,48.8,214.4,48.8,214.4,48.9z"/>
		<path class="st4" d="M290.5,66.5c0-1-0.1-2-0.1-3c-0.1-1-0.2-2-0.4-3c-0.1-1-0.4-1.9-0.7-2.9c-0.1-0.5-0.3-1-0.4-1.5
			c-0.2-0.4-0.4-0.9-0.6-1.4c-0.1-0.3-0.3-0.7-0.4-1c-1.8-3.9-4-7.2-6.6-10.1c-2.6-2.9-5.7-5.4-9.3-7.6c-0.5-0.3-0.9-0.6-1.4-0.8
			l-1.4-0.6l-1.4-0.6c-0.5-0.2-1-0.3-1.5-0.5c-1.5-0.4,0.5,1.4-1.9,0.7c0.1,0.1,0.2,0.2,0.3,0.3c0.9,0.2,1.8,0.4,2.5,0.6
			c0.6,0.3,1.1,0.5,1.3,0.8c0.1,0.5-0.6,0.4-1.7,0.2c-0.1,0-0.1,0-0.2,0c-4-1.7-8.4-2.6-13-2.6c-2.7,0-5.4,0.3-7.9,0.9
			c0.5-0.5,1-1,1.5-1.4c-0.5,0.1-1,0.2-1.5,0.3c-0.5,0.2-0.9,0.3-1.4,0.5c-0.9,0.3-1.8,0.6-2.6,1c0.2-0.1,0.1-0.2,0.1-0.3
			c-1.3,0.5-2.4,0.9-3.4,1.5c-1.1,0.6-2.1,1.1-3.3,1.9c3-2.8,7.8-4.7,12.7-5.5c0.2-0.2,0.4-0.5,0.6-0.7c-3.1,0.3-6.1,1.1-8.9,2.3
			c3.3-1.5,6.8-2.4,10.3-2.9c0.2-0.5,0.2-1-0.2-1.5c-5.2,0.3-10.2,2-14.7,4.6c-4.4,2.6-8.3,6.2-11.5,10.1l-0.1,0.2
			c-0.2,0.5-0.5,1-0.8,1.6c-0.3,0.5-0.5,1.2-0.9,1.8c-0.3,0.6-0.6,1.2-0.9,1.9s-0.6,1.3-0.8,2c-0.6,1.3-1,2.8-1.4,4.2
			c-0.4,1.4-0.5,2.9-0.7,4.2c-0.1,5.3,0.4,10.5,2.3,15.2c-0.1-0.5-0.2-1-0.3-1.5c0.2,0.7,0.5,1.3,0.7,2c0.4,1.5,0.9,3,1.5,4.5
			c-0.1-0.2-0.2-0.4-0.3-0.6c-0.5-1.2-1.1-2.5-1.4-3.9c-0.2,0.6-0.4-0.9-0.7-0.8c-0.2-0.3-0.4-0.6-0.5-1l-0.4-1.1
			c-0.3-0.7-0.5-1.4-0.8-2.1c-0.4-1.5-0.8-2.9-1-4.2c-0.1-1.1-0.2-2.1-0.2-3.2c0.1-1,0.2-2.1,0.3-3.1c0-1,0.3-2,0.4-3
			c0.1-0.5,0.1-1,0.2-1.5c0.1-0.5,0.2-1,0.2-1.5c0.1-0.6,0.3-1.4,0.6-2.2c0.4-0.8,0.8-1.6,1.1-2.4c0.1-0.7,0.4-1.4,0.7-2.1
			c-0.5,0.7-1,1.4-1.4,2.1c-0.2,0.2,1.1-3.1,3.1-6.1c0.9-1.6,2-3,2.8-4.1c0.8-1.1,1.3-1.8,1.1-1.8c0,0-0.1,0.2-0.4,0.4
			c-0.3,0.2-0.7,0.6-1.1,1.1c-0.8,1.1-2.1,2.4-3.2,4.2c-0.3,0.4-0.6,0.8-0.9,1.3c-0.2,0.5-0.5,1-0.8,1.5c-0.5,1.1-1.1,2.1-1.6,3.2
			c-1.1,2.2-1.9,4.5-2.5,6.6c-0.5,0.8-1,0.3-1.3-0.6c-0.4-0.8-0.4-2.1-0.3-2.7c0-0.2,0-0.3,0-0.5c-0.5,1.3-1.1,2.6-1.4,3.9
			c-0.2,1.1-0.4,2.2-0.5,3.3l-0.3,3.3c0,0.9,0,1.8,0,2.7c0,0.8,0,1.7,0.1,2.6c0.2,1.7,0.4,3.5,0.8,5.2c-0.3-0.9-0.6-1.9-0.8-2.8
			c-0.1-0.5-0.2-0.9-0.3-1.4c-0.5-1.9-0.5-4-0.4-6.2c0.2-1.1,0.3-2.3,0.5-3.4c0.1-0.6,0.2-1.1,0.4-1.7c0.2-0.6,0.3-1.1,0.5-1.7
			c0.2-0.7,0.2-1.3,0.4-1.9l0.5-1.8l0.5-1.8l0.6-1.7c-0.3,0.6-0.6,1.3-0.8,1.9l-0.9,2.3c-0.6,1.5-1,3.1-1.4,4.6
			c-0.9,5.8-0.6,11.7,0.8,17.4c-0.3-0.9-0.6-1.9-0.9-2.8c-1.3-4-1.3-9.3,0-14.6c0.9-5.5,2.7-10.9,5.4-15.7c-2,3.2-4.1,6.9-5.1,10.5
			c-0.6,1.8-0.8,3.6-1.2,5.4c-0.2,0.9-0.2,1.8-0.3,2.7c-0.1,0.8-0.2,1.7-0.2,2.6c-0.1,3.5,0.2,7,0.9,10.3c1.1,5.3,3.2,10.3,6,14.6
			c-0.2-0.2-0.3-0.4-0.4-0.6c0.3,0.5,0.9,1.6,1.2,2.1l0.8,0.8c-0.1-0.2-0.3-0.4-0.4-0.6c0.3,0.4,0.6,0.8,1,1.2
			c3.5,5.4,8.7,9.7,14,11.8c1.1,0.5,2.9,0.8,4,1.3c5.1,2.2,10.5,2.8,15.5,2.5c-2.2,0.1-4.5-0.1-6.9-0.4c0.3-0.1,0.6-0.1,1-0.1
			c0.8,0,1.5,0,2.3,0c0.7,0,1.5-0.1,2.3-0.1c0.5,0,0.9,0,1.4,0c-1.8-2,4.9-1.3,12-3.5c3.7-1.2,7.3-3.1,10-5.3
			c0.6-0.5,1.2-1.1,1.8-1.6c0.6-0.5,1-1.1,1.4-1.6c0.3-0.6,0.7-1,0.9-1.5c0.2-0.5,0.4-0.9,0.4-1.3c0.7-0.1,0.8,0.5,0.5,1.4
			c-0.3,0.9-1.2,2.1-2.3,3.4c-2.3,2.4-5.8,4.9-7.8,5.7c-1.2,0.6-2.6,1-3.9,1.5c-0.7,0.3-1.4,0.5-2.1,0.7s-1.4,0.4-2.1,0.6
			c-0.7,0.2-1.5,0.3-2.2,0.5c-0.7,0.1-1.5,0.3-2.2,0.4s-1.5,0.2-2.2,0.3c-0.4,0.1-0.7,0.2-1.1,0.2c-0.4,0.1-0.7,0.1-1.1,0.1
			c0.3,0,0.7,0,1,0c0.8-0.1,1.7-0.1,2.5-0.2c0.5,0,0.9-0.1,1.3-0.1c0.5-0.1,0.9-0.1,1.3-0.2c0.5-0.1,1.1-0.2,1.6-0.3
			c-2.7,0.6-5.5,1-8.2,1.2c3.8-0.1,7.5-0.7,11-1.8c0.2,0,0.4-0.1,0.6-0.1l1.3-0.4l0.9-0.4l-0.2,0.1c4.4-1.6,8.4-4,12-7
			c3.4-2.9,6.1-6.3,8-10c2-3.7,3.3-7.6,3.8-11.6c0.2-0.8,0.2-1.6,0.3-2.4s0.3-1.6,0.3-2.4c0.1-1.6,0.3-3.2,0.2-4.8
			C290.3,66,290.4,66.2,290.5,66.5z M219.7,64.2c0-0.6,0-1.1,0-1.7c0-0.6,0.1-1.3,0.1-2c0-0.2,0.1-0.4,0.1-0.6
			c0.1-0.2,0.1-0.5,0.2-0.7c-0.2,1.5-0.3,3-0.4,4.6C219.7,63.9,219.7,64,219.7,64.2z M226.4,47c0,0,0,0.1-0.1,0.1c0,0,0,0,0,0
			C226.3,47.1,226.4,47.1,226.4,47z M217.1,79c-0.3-0.8-0.5-1.7-0.8-2.5c-0.2-0.6-0.5-1.1-0.6-1.7c-0.3-1.3-0.5-2.4-0.5-3.5
			c-0.1-0.2-0.1-0.3-0.1-0.5c0.1,0.1,0.1,0.2,0.1,0.3c0.1-1.6,0.1-3.2,0.4-5.1l-0.1-0.6h0.5c0.2,0.6,0.2,1.3,0.3,1.9
			c0.1,0.6,0.2,1.2,0.3,1.9c0.1,0.7,0.1,1.3,0.2,2c0.1,0.7,0.2,1.3,0.3,2c0.1,0.6,0.2,1.3,0.3,2l0.5,2c0.3,1.3,0.8,2.6,1.4,3.8
			c1.6,3.1,3.5,6.1,5.9,8.7c0.6,0.7,1.3,1.3,1.9,1.9c0.7,0.6,1.3,1.2,2,1.7c0.7,0.5,1.4,1,2.1,1.5c0.7,0.4,1.5,0.8,2.2,1.2
			c0.8,0.5,2.1,1.4,2.9,2c-0.8-0.4-1.6-0.7-2.4-1c-0.8-0.4-1.5-0.7-2.3-1.1c-0.8-0.4-1.6-0.8-2.3-1.3s-1.5-1-2.2-1.6
			c-0.1-0.1-0.2-0.2-0.3-0.2c-0.2-0.3-0.4-0.7-0.6-1c-1-0.6-2.2-1.8-3.2-3c-1.2-1.7-2.4-3.5-3.4-5.3c1.6,3.1,3.6,6,5.8,8.1
			c0,0-0.1-0.1-0.1-0.1c-0.6-0.5-1.1-1.1-1.7-1.7c-1.2-1.1-2.1-2.5-3.1-3.9c-0.5-0.7-0.9-1.5-1.3-2.2l-0.6-1.1
			c-0.2-0.4-0.3-0.8-0.5-1.2L217.1,79z M220.6,92.8c0.1,0.1,0.2,0.1,0.2,0.2c0.2,0.3,0.5,0.5,0.8,0.8s0.6,0.5,0.9,0.8
			c2.5,2.5,5.7,5.1,8.7,6.9c-0.3-0.6,1.2,0.3,1.3,0.2c0.8,0.3,1.6,0.7,2.5,1c0.9,0.3,1.7,0.7,2.6,1.1c0.8,0.3,1.8,0.6,2.7,1
			c0.5,0.2,0.9,0.4,1.4,0.5l1.4,0.4c0.5,0.2,0.6,0.3,0.9,0.5C234.8,104.5,226.6,99.7,220.6,92.8z"/>
		<path class="st4" d="M214.4,48.9l-0.1,0.1C214.4,49,214.4,48.9,214.4,48.9C214.4,48.9,214.4,48.9,214.4,48.9z"/>
		<path class="st4" d="M215.3,71.1v0.2c0.1,0.9,0.3,1.7,0.5,2.6l0.3,1.3c0.1,0.4,0.3,0.9,0.4,1.3c0.5,1.2,0.8,2.4,1.4,3.5
			c0.6,1.2,1.1,2.3,1.8,3.4C217.4,79.2,216.2,74.7,215.3,71.1z"/>
	</g>
	<g>
		<path class="st5" d="M28.8,241.4c-0.2,0.6-0.3,1.2-0.5,1.7c-0.1,0.6-0.2,1.1-0.2,1.6l0.5-1.2c0.2-0.4,0.4-0.8,0.6-1.2
			c0.4-0.9,0.8-1.7,1.2-2.5c1-2.6,1.7-4.2,2.2-4.9c-0.3,2,0.3,1.2,0.6,0.3c0.3-0.9,0.4-1.9-0.6-0.3c0.1-0.5,0.2-1.1,0.4-1.9
			c-0.1,0.1-0.2,0.3-0.3,0.4c-0.4,0.6-0.8,1.3-1.1,1.9c-0.3,0.7-0.7,1.3-1,2c-0.3,0.7-0.7,1.3-1,2C29.3,240,29.1,240.7,28.8,241.4z"
			/>
		<path class="st5" d="M82.5,294.9c-0.8,0.3-1.7,0.6-2.5,0.9l-0.3,0.1l0.4-0.1C80.9,295.5,81.8,295.2,82.5,294.9z"/>
		<polygon class="st5" points="66.3,298.2 66.3,298.2 66.3,298.2 		"/>
		<path class="st5" d="M28.4,241c0.1-0.1,0.1-0.1,0.1-0.2C28.5,240.9,28.4,240.9,28.4,241z"/>
		<path class="st5" d="M104.5,258.6c0-1-0.1-2-0.1-3c-0.1-1-0.2-2-0.4-3c-0.1-1-0.4-1.9-0.7-2.9c-0.1-0.5-0.3-1-0.4-1.5
			c-0.2-0.4-0.4-0.9-0.6-1.4c-0.1-0.3-0.3-0.7-0.4-1c-1.8-3.9-4-7.2-6.6-10.1c-2.6-2.9-5.7-5.4-9.3-7.6c-0.5-0.3-0.9-0.6-1.4-0.8
			l-1.4-0.6l-1.4-0.6c-0.5-0.2-1-0.3-1.5-0.5c-1.5-0.4,0.5,1.4-1.9,0.7c0.1,0.1,0.2,0.2,0.3,0.3c0.9,0.2,1.8,0.4,2.5,0.6
			c0.6,0.3,1.1,0.5,1.3,0.8c0.1,0.5-0.6,0.4-1.7,0.2c-0.1,0-0.1,0-0.2,0c-4-1.7-8.4-2.6-13-2.6c-2.7,0-5.4,0.3-7.9,0.9
			c0.5-0.5,1-1,1.5-1.4c-0.5,0.1-1,0.2-1.5,0.3c-0.5,0.2-0.9,0.3-1.4,0.5c-0.9,0.3-1.8,0.6-2.6,1c0.2-0.1,0.1-0.2,0.1-0.3
			c-1.3,0.5-2.4,0.9-3.4,1.5c-1.1,0.6-2.1,1.1-3.3,1.9c3-2.8,7.8-4.7,12.7-5.5c0.2-0.2,0.4-0.5,0.6-0.7c-3.6,0.4-7.2,1.4-10.5,3
			c3.7-1.9,7.8-3,11.8-3.6c0.2-0.5,0.2-1-0.2-1.5c-5.2,0.3-10.2,2-14.7,4.6c-4.4,2.6-8.3,6.2-11.5,10.1l-0.1,0.2
			c-0.2,0.5-0.5,1-0.8,1.6c-0.3,0.5-0.5,1.2-0.9,1.8c-0.3,0.6-0.6,1.2-0.9,1.9c-0.3,0.7-0.6,1.3-0.8,2c-0.6,1.3-1,2.8-1.4,4.2
			c-0.4,1.4-0.5,2.9-0.7,4.2c-0.1,5.3,0.4,10.5,2.3,15.2c-0.2-0.7-0.3-1.4-0.4-2.1c0.3,0.8,0.6,1.7,1,2.6c0.4,1.5,0.9,3,1.5,4.5
			c-0.1-0.2-0.2-0.4-0.3-0.6c-0.5-1.2-1.1-2.5-1.4-3.9c-0.2,0.6-0.4-0.9-0.7-0.8c-0.2-0.3-0.4-0.6-0.5-1l-0.4-1.1
			c-0.3-0.7-0.5-1.4-0.8-2.1c-0.4-1.5-0.8-2.9-1-4.2c-0.1-1.1-0.2-2.1-0.2-3.2c0.1-1,0.2-2.1,0.3-3.1c0-1,0.3-2,0.4-3
			c0.1-0.5,0.1-1,0.2-1.5c0.1-0.5,0.2-1,0.2-1.5c0.1-0.6,0.3-1.4,0.6-2.2c0.4-0.8,0.8-1.6,1.1-2.4c0.1-0.7,0.4-1.4,0.7-2.1
			c-0.5,0.7-1,1.4-1.4,2.1c-0.2,0.2,1.1-3.1,3.1-6.1c0.9-1.6,2-3,2.8-4.1c0.8-1.1,1.3-1.8,1.1-1.8c0,0-0.1,0.2-0.4,0.4
			c-0.3,0.2-0.7,0.6-1.1,1.1c-0.8,1.1-2.1,2.4-3.2,4.2c-0.3,0.4-0.6,0.8-0.9,1.3c-0.2,0.5-0.5,1-0.8,1.5c-0.5,1.1-1.1,2.1-1.6,3.2
			c-1.1,2.2-1.9,4.5-2.5,6.6c-0.5,0.8-1,0.3-1.3-0.6c-0.4-0.8-0.4-2.1-0.3-2.7c0-0.2,0-0.3,0-0.5c-0.5,1.3-1.1,2.6-1.4,3.9
			c-0.2,1.1-0.4,2.2-0.5,3.3l-0.3,3.3c0,0.9,0,1.8,0,2.7c0,0.8,0,1.7,0.1,2.6c0.2,1.7,0.4,3.5,0.8,5.2c-0.3-0.9-0.6-1.9-0.8-2.8
			c-0.1-0.5-0.2-0.9-0.3-1.4c-0.5-1.9-0.5-4-0.4-6.2c0.2-1.1,0.3-2.3,0.5-3.4c0.1-0.6,0.2-1.1,0.4-1.7c0.2-0.6,0.3-1.1,0.5-1.7
			c0.2-0.7,0.2-1.3,0.4-1.9l0.5-1.8l0.5-1.8l0.6-1.7c-0.3,0.6-0.6,1.3-0.8,1.9l-0.9,2.3c-0.6,1.5-1,3.1-1.4,4.6
			c-0.9,5.8-0.6,11.7,0.8,17.4c-0.3-0.9-0.6-1.9-0.9-2.8c-1.3-4-1.3-9.3,0-14.6c0.9-5.5,2.7-10.9,5.4-15.7c-2,3.2-4.1,6.9-5.1,10.5
			c-0.6,1.8-0.8,3.6-1.2,5.4c-0.2,0.9-0.2,1.8-0.3,2.7c-0.1,0.8-0.2,1.7-0.2,2.6c-0.1,3.5,0.2,7,0.9,10.3c1.2,5.7,3.4,10.9,6.6,15.4
			c-0.3-0.5-0.8-0.9-1.1-1.4c0.3,0.5,0.9,1.6,1.2,2.1l0.8,0.8c-0.3-0.5-0.6-1-0.9-1.5c0.5,0.7,0.9,1.3,1.4,1.9
			c-0.2-0.1-0.3-0.3-0.4-0.4c3.5,5.7,8.9,10.3,14.5,12.5c1.1,0.5,2.9,0.8,4,1.3c5.1,2.2,10.5,2.8,15.5,2.5c-2.4,0.1-4.9-0.1-7.4-0.5
			l-0.3,0.1c-9.8-1.6-18.4-6.7-24.6-14.1c0.3,0.2,0.6,0.5,0.9,0.7c0.2,0.3,0.5,0.5,0.8,0.8c0.3,0.3,0.6,0.5,0.9,0.8
			c2.5,2.5,5.7,5.1,8.7,6.9c-0.3-0.6,1.2,0.3,1.3,0.2c0.8,0.3,1.6,0.7,2.5,1s1.7,0.7,2.6,1.1c0.8,0.3,1.8,0.6,2.7,1
			c0.5,0.2,0.9,0.4,1.4,0.5l1.4,0.4c0.6,0.2,0.6,0.3,1.1,0.6c0.2,0,0.4,0,0.6,0c0.2,0,0.3,0,0.5,0c0.4-0.1,0.7-0.1,1.1-0.1
			c0.8,0,1.5,0,2.3,0c0.7,0,1.5-0.1,2.3-0.1c0.4,0,0.9,0,1.3,0c-1.8-2,4.9-1.3,12-3.5c3.7-1.2,7.3-3.1,10-5.3
			c0.6-0.5,1.2-1.1,1.8-1.6c0.6-0.5,1-1.1,1.4-1.6c0.3-0.6,0.7-1,0.9-1.5c0.2-0.5,0.4-0.9,0.4-1.3c0.7-0.1,0.8,0.5,0.5,1.4
			c-0.3,0.9-1.2,2.1-2.3,3.4c-2.3,2.4-5.8,4.9-7.8,5.7c-1.2,0.6-2.6,1-3.9,1.5c-0.7,0.3-1.4,0.5-2.1,0.7c-0.7,0.2-1.4,0.4-2.1,0.6
			c-0.7,0.2-1.5,0.3-2.2,0.5c-0.7,0.1-1.5,0.3-2.2,0.4s-1.5,0.2-2.2,0.3c-0.4,0.1-0.7,0.2-1.1,0.2c-0.4,0.1-0.7,0.1-1.1,0.1
			c0.4,0,0.7,0,1.1,0c0.8-0.1,1.7-0.1,2.5-0.2c0.5,0,0.9-0.1,1.3-0.1c0.5-0.1,0.9-0.1,1.3-0.2c0.5-0.1,1.1-0.2,1.6-0.3
			c-2.7,0.6-5.5,1-8.2,1.2c3.8-0.1,7.5-0.7,11-1.8c0.2,0,0.4-0.1,0.6-0.1l1.3-0.4l0.9-0.4l-0.2,0.1c4.4-1.6,8.4-4,12-7
			c3.4-2.9,6.1-6.3,8-10c2-3.7,3.3-7.6,3.8-11.6c0.2-0.8,0.2-1.6,0.3-2.4c0.1-0.8,0.3-1.6,0.3-2.4c0.1-1.6,0.3-3.2,0.2-4.8
			C104.3,258.1,104.4,258.3,104.5,258.6z M33.7,256.3c0-0.6,0-1.1,0-1.7c0-0.6,0.1-1.3,0.1-2c0.1-0.5,0.2-1,0.2-1.5
			c0.1-0.2,0.1-0.4,0.2-0.7c-0.3,1.8-0.5,3.6-0.5,5.4C33.7,256,33.7,256.1,33.7,256.3z M40.4,239.1c0,0,0,0.1-0.1,0.1c0,0,0,0,0,0
			C40.3,239.2,40.4,239.2,40.4,239.1z M47.8,289.1c-0.8-0.4-1.5-0.7-2.3-1.1c-0.8-0.4-1.6-0.8-2.3-1.3s-1.5-1-2.2-1.6
			c-0.1-0.1-0.2-0.2-0.3-0.2c-0.2-0.3-0.4-0.7-0.6-1c-1-0.6-2.2-1.7-3.2-3c-1.2-1.7-2.4-3.5-3.4-5.3c1.6,3.1,3.6,6,5.8,8.1
			c0,0-0.1-0.1-0.1-0.1c-0.6-0.5-1.1-1.1-1.7-1.7c-1.2-1.1-2.1-2.5-3.1-3.9c-0.5-0.7-0.9-1.5-1.3-2.2l-0.6-1.1
			c-0.2-0.4-0.3-0.8-0.5-1.2l-1-2.4c-0.3-0.8-0.5-1.7-0.8-2.5c-0.2-0.6-0.5-1.1-0.6-1.7c-0.3-1.3-0.5-2.4-0.5-3.5
			c-0.1-0.2-0.1-0.3-0.1-0.5c0.1,0.1,0.1,0.2,0.1,0.3c0.1-1.6,0.1-3.2,0.4-5.1l-0.1-0.6h0.5c0.2,0.6,0.2,1.3,0.3,1.9
			c0.1,0.6,0.2,1.2,0.3,1.9s0.1,1.3,0.2,2c0.1,0.7,0.2,1.3,0.3,2c0.1,0.6,0.2,1.3,0.3,2l0.5,2c0.3,1.3,0.8,2.6,1.4,3.8
			c1.6,3.1,3.5,6.1,5.9,8.7c0.6,0.7,1.3,1.3,1.9,1.9c0.7,0.6,1.3,1.2,2,1.7s1.4,1,2.1,1.5c0.7,0.4,1.5,0.8,2.2,1.2
			c0.8,0.5,2.1,1.4,2.9,2C49.4,289.7,48.6,289.4,47.8,289.1z"/>
		<path class="st5" d="M28.4,241l-0.1,0.1C28.4,241.1,28.4,241,28.4,241C28.4,241,28.4,241,28.4,241z"/>
		<path class="st5" d="M29.2,263.4c0.1,0.9,0.3,1.7,0.5,2.6l0.3,1.3c0.1,0.4,0.3,0.9,0.4,1.3c0.5,1.2,0.8,2.4,1.4,3.5
			c0.6,1.2,1.1,2.3,1.8,3.4c-2.3-4.2-3.5-8.7-4.4-12.3V263.4z"/>
	</g>
	<g>
		<path class="st6" d="M436.9,218.2c0.8-0.4,1.6-1-0.2-0.6C435.1,218.8,436,218.6,436.9,218.2z"/>
		<path class="st6" d="M408.1,249.3c0.2-0.8,0.4-1.5,0.6-2.3C408.4,247.7,408.2,248.5,408.1,249.3z"/>
		<path class="st6" d="M407.5,252.4c0.2-1,0.4-2.1,0.6-3.1C407.8,250.3,407.6,251.3,407.5,252.4z"/>
		<path class="st6" d="M429.7,295.7c-0.2-0.1-0.3-0.2-0.5-0.2c-0.1,0-0.1,0-0.2-0.1C429.2,295.5,429.5,295.6,429.7,295.7z"/>
		<path class="st6" d="M479.1,250.9c-0.1-0.5-0.2-1-0.4-1.5l-0.6-1.5l-0.6-1.5c-0.2-0.5-0.5-0.9-0.7-1.4c-0.8-1.3-0.6,1.4-1.8-0.8
			c0,0.1,0,0.3,0,0.4c0.4,0.8,1,1.6,1.3,2.2c0.3,0.7,0.5,1.2,0.4,1.5c-0.2,0.3-0.5,0-0.9-0.5c-2.6-6.8-7.2-12.6-13.2-16.5
			c0.7,0,1.2,0.1,1.9,0.1c-0.4-0.3-0.8-0.5-1.2-0.8c-0.4-0.3-0.9-0.5-1.3-0.7c-0.9-0.4-1.8-0.9-2.6-1.1c0.2,0,0.3-0.1,0.3-0.2
			c-1.3-0.5-2.3-1-3.5-1.3c-1.1-0.3-2.2-0.7-3.6-1c4.1,0.1,8.8,2.2,12.8,5.1c0.3,0,0.6-0.1,0.9-0.1c-4-3.4-9-5.7-14.2-6.7l-1-0.2
			c-0.3,0-0.7-0.1-1-0.1l-2-0.2c-1.3-0.2-2.6-0.1-3.9-0.1c-1.2,0.1-2.5,0.2-3.7,0.4c0.3-0.1,0.6-0.1,0.9-0.2
			c4.1-0.7,8.7-0.5,13.2,0.8s8.7,3.5,12.4,6.2c0.5-0.2,0.9-0.6,0.9-1.2c-3.8-3.5-8.6-5.8-13.6-7.1c-5-1.3-10.2-1.5-15.3-1l-0.2,0.1
			c-0.5,0.2-1.1,0.4-1.7,0.6c-0.6,0.2-1.2,0.4-1.9,0.6c-0.6,0.2-1.3,0.4-2,0.7c-0.7,0.3-1.3,0.5-2,0.8c-1.4,0.5-2.7,1.3-4,2
			s-2.4,1.6-3.4,2.5c-3.2,3.1-6.1,6.4-8,10.1c0.3-0.6,0.6-1.3,0.8-1.9c0.7-1.2,1.4-2.5,2.2-3.6c0.7-0.9,1.4-1.6,2.1-2.4
			c0.8-0.7,1.6-1.3,2.4-2c0.7-0.7,1.6-1.2,2.4-1.8c0.4-0.3,0.8-0.6,1.2-0.9c0.4-0.3,0.8-0.6,1.2-0.9c0.5-0.3,1.2-0.7,2-1.1
			c0.9-0.3,1.8-0.7,2.5-1c0.6-0.4,1.3-0.7,2-1c-0.8,0.1-1.6,0.3-2.4,0.5c-0.3,0,3-1.4,6.5-2.2c1.8-0.5,3.6-0.6,4.9-0.9
			c1.3-0.2,2.1-0.3,2-0.5c0,0-0.2,0-0.6,0c-0.3,0-0.8-0.1-1.5,0c-1.3,0.2-3.1,0.2-5.2,0.7c-0.5,0.1-1.1,0.2-1.6,0.3
			c-0.5,0.2-1,0.3-1.6,0.5c-1.1,0.3-2.3,0.6-3.4,1.1c-2.3,0.8-4.5,1.9-6.4,2.9c-0.9,0.2-0.9-0.5-0.5-1.4c0.3-0.8,1.2-1.8,1.7-2.1
			c0.1-0.1,0.2-0.2,0.3-0.3c-1.1,0.5-2.1,0.9-3.1,1.4c0.3-0.2,0.6-0.4,0.8-0.5l1.6-0.9l1.6-0.9l0.6-0.3c-0.1,0.1-0.2,0.1-0.3,0.2
			c-0.5,0.3-0.9,0.7-1.3,1l1.2-0.5c0.4-0.2,0.8-0.3,1.3-0.4c0.8-0.3,1.6-0.6,2.4-0.9c2.5-1.2,4.1-1.8,5.1-1.9
			c0.4-0.3,0.9-0.6,1.6-1.1c-0.2,0-0.3,0-0.5,0.1c-0.7,0.2-1.4,0.4-2.1,0.5c-0.7,0.2-1.4,0.5-2.1,0.7s-1.4,0.5-2.1,0.7
			c-0.7,0.3-1.4,0.6-2,0.9c-0.2,0.1-0.3,0.2-0.5,0.3c-0.6,0.2-1.2,0.4-1.7,0.6l-2.2,1c-1.3,0.5-2.5,1.2-3.8,1.9
			c4.4-3.1,9.3-5.5,14.5-7c-3.6,0.8-7.8,2-11,3.8c-1.6,0.8-3.1,1.9-4.6,2.9c-0.7,0.5-1.4,1.1-2.1,1.7c-0.7,0.5-1.4,1.1-2,1.7
			c-2.5,2.4-4.8,5-6.6,7.9c-3.6,5.7-5.9,12.1-6.6,18.5c0.1,0.8,0.2,1.6,0.2,2.4c0,0.4,0,0.8,0,1.2c0.1,0.4,0.1,0.8,0.1,1.2
			c0,3.6,0.5,7.7,1.3,11.1c0.2-0.7,0.6,1,0.8,1c0.3,0.8,0.6,1.7,1,2.5c0.4,0.8,0.8,1.7,1.1,2.6c0.3,0.9,0.8,1.8,1.2,2.7
			c0.2,0.4,0.4,0.9,0.6,1.3l0.8,1.3c0.2,0.4,0.2,0.6,0.2,1c0,0,0,0,0-0.1l-0.1-0.1c-5.9-8.3-8.4-18.5-7.3-28.4
			c-0.1-0.5-0.1-1-0.1-1.5c-1.6,6.5-1,13.5,1.4,19.1c0.4,1.1,1.5,2.6,1.8,3.7c2.1,5.2,5.4,9.4,9.2,12.8c-1.6-1.5-3.1-3.2-4.5-5
			c0.1,0.1,0.3,0.3,0.5,0.4c0.3,0.2,0.5,0.5,0.8,0.7c0.5,0.5,1.1,1,1.6,1.6c0.5,0.5,1.1,1,1.7,1.6c0.5,0.6,1.1,1.1,1.7,1.7
			c0.6,0.5,1.3,1.1,1.9,1.6l0.9,0.8c0.3,0.3,0.7,0.5,1,0.8c0.2,0.1,0.3,0.2,0.5,0.4c-2.1-1.3-4-2.8-5.9-4.5
			c4.1,3.9,8.7,6.8,13.7,8.8c-0.6-0.3-1.1-0.5-1.7-0.8c0.6,0.2,1.3,0.5,1.9,0.9c3.5,1.4,7.2,2.2,11,2.5c4.4,0.4,8.7-0.2,12.7-1.4
			c3.9-1.2,7.6-3,10.8-5.5c0.7-0.5,1.3-1,1.9-1.5c0.6-0.5,1.3-1,1.9-1.5c1.1-1.1,2.4-2.1,3.5-3.3c-0.1,0.3-0.2,0.5-0.3,0.8
			c0.7-0.7,1.4-1.5,2.1-2.2c0.6-0.8,1.2-1.6,1.8-2.4c0.7-0.8,1.1-1.7,1.6-2.6c0.2-0.4,0.5-0.8,0.7-1.3c0.2-0.4,0.4-0.9,0.6-1.4
			c0.1-0.3,0.3-0.7,0.4-1c1.4-4,2.2-7.9,2.4-11.8C480.5,259,480.1,255,479.1,250.9z M430.3,228.1c0.6-0.3,1.2-0.6,1.8-0.9
			c-0.2,0.1-0.4,0.2-0.6,0.3c0.9-0.2,1.8-0.5,2.7-0.7l-2.8,1c-0.4,0.2-0.8,0.4-1.2,0.6c0.3-0.2,0.7-0.4,1-0.6
			C430.9,227.9,430.6,228,430.3,228.1c-0.6,0.4-1.2,0.7-1.8,1.1c0.4-0.2,0.8-0.4,1.2-0.5c-0.5,0.3-0.9,0.5-1.4,0.8
			c-0.4,0.2-0.8,0.4-1.2,0.7c0.5-0.4,1.1-0.9,1.6-1.2c-4.6,2.2-9,5.7-11.8,10c-0.8,1-1.5,2-2.1,3.1c0.1-0.2,0.1-0.4,0-0.4
			c0-0.1,0.1-0.2,0.1-0.3C418.6,235.5,423.8,230.7,430.3,228.1z M422.3,223.6c-0.7,0.4-1.4,0.9-2,1.4l-2.5,2.1
			c-0.7,0.6-1.3,1.3-1.9,1.9c-0.6,0.7-1.3,1.3-1.8,2c-1.1,1.4-2.3,2.8-3.2,4.3c0.4-0.8,0.9-1.7,1.4-2.5c0.3-0.4,0.5-0.8,0.8-1.2
			c1-1.6,2.5-3.1,4.1-4.6c0.9-0.7,1.8-1.3,2.7-2c0.5-0.3,1-0.6,1.5-0.9C421.7,223.9,422,223.7,422.3,223.6z M410.5,233.8
			c1.9-3.6,5.5-7.2,9.8-9.9c-4.5,3.4-8.3,7.7-11.2,12.5C409.6,235.5,410,234.7,410.5,233.8z M409.4,266.7c-0.2-0.8-0.5-1.6-0.8-2.4
			s-0.5-1.6-0.7-2.5c-0.2-0.9-0.5-1.8-0.5-2.7c0-0.2,0-0.3,0-0.5c0.1-0.4,0.1-0.7,0.1-1.1c-0.2-0.5-0.3-1.1-0.3-1.8
			c0-0.4,0-0.8,0-1.1c0.1-0.7,0.1-1.5,0.3-2.2c-0.1,0.3-0.1,0.6-0.2,0.8c0,0.2,0,0.4-0.1,0.6c0.1-1.4,0.3-2.8,0.6-4.3
			c0.2-0.9,0.5-1.7,0.7-2.5l0.4-1.2c0.1-0.1,0.1-0.3,0.2-0.4c-0.2,0.5-0.3,1.1-0.5,1.6c1.2-3.9,3.1-7.4,4.9-10.4
			c0.3-0.4,0.7-0.8,1-1.2l0.3-0.3c1.1-1,2.3-2,3.7-3.2l0.3-0.5l0.3,0.4c-0.4,0.5-0.8,1-1.2,1.5s-0.8,1.1-1.2,1.6
			c-0.4,0.5-0.9,1-1.3,1.5s-0.8,1.1-1.2,1.6c-0.4,0.6-0.8,1.1-1.2,1.7l-1.1,1.8c-0.8,1.2-1.2,2.4-1.7,3.7c-1,3.3-1.9,6.8-2,10.3
			c-0.1,0.8,0,1.7,0,2.6c0,0.9,0,1.7,0.2,2.6c0.1,0.8,0.2,1.7,0.4,2.5s0.4,1.6,0.7,2.4c0.2,1,0.5,2.5,0.9,3.5
			C410.1,268.3,409.7,267.5,409.4,266.7z M444.5,296c-0.9,0.4-2.3,0.6-4,0.8c-3.4,0.1-7.6-0.7-9.6-1.5c-1.3-0.4-2.6-1.1-3.9-1.7
			c-0.6-0.3-1.2-0.7-1.9-1c-0.7-0.4-1.3-0.7-2-1.1c-0.6-0.4-1.3-0.8-1.9-1.2c-0.6-0.5-1.3-0.8-1.9-1.3c-0.6-0.4-1.2-0.9-1.8-1.3
			c-0.3-0.3-0.6-0.5-0.9-0.7l-0.8-0.7c0.1-2.8,4.3,2.5,11.2,6.2c3.4,1.7,7.4,2.9,10.8,3.3c0.8,0,1.6,0.1,2.4,0.1
			c0.7,0,1.5-0.1,2.1-0.2c0.6-0.1,1.2-0.2,1.7-0.4c0.5-0.1,0.9-0.4,1.2-0.6C445.7,295.1,445.4,295.6,444.5,296z"/>
		<path class="st6" d="M403.2,247.5c-0.2,0.6-0.5,1.8-0.6,2.4c0,0.4,0,0.8,0,1.1c0.1-0.6,0.3-1.1,0.4-1.7
			C403.1,248.7,403.1,248.1,403.2,247.5z"/>
	</g>
	<g>
		<path class="st7" d="M382.9,87c0.8-0.4,1.6-1-0.2-0.6C381.1,87.6,382,87.4,382.9,87z"/>
		<path class="st7" d="M353.3,122c-0.2,0.8-0.2,1.7-0.2,2.4c0-1.1,0.1-2.2,0.3-3.3C353.4,121.4,353.4,121.7,353.3,122z"/>
		<path class="st7" d="M354.1,118.1c0.2-0.8,0.4-1.5,0.6-2.3C354.4,116.5,354.2,117.3,354.1,118.1z"/>
		<path class="st7" d="M353.5,121.2c0.2-1,0.4-2.1,0.6-3.1C353.8,119.1,353.6,120.1,353.5,121.2z"/>
		<path class="st7" d="M375.7,164.5c-0.2-0.1-0.3-0.2-0.5-0.2c-0.1,0-0.1,0-0.2-0.1C375.2,164.3,375.5,164.4,375.7,164.5z"/>
		<path class="st7" d="M425.1,119.7c-0.1-0.5-0.2-1-0.4-1.5l-0.6-1.5l-0.6-1.5c-0.2-0.5-0.5-0.9-0.7-1.4c-0.8-1.3-0.6,1.4-1.8-0.8
			c0,0.1,0,0.3,0,0.4c0.4,0.8,1,1.6,1.3,2.2c0.3,0.7,0.5,1.2,0.4,1.5c-0.2,0.3-0.5,0-1-0.6c-2.6-6.8-7.3-12.5-13.3-16.4
			c0.7,0,1.3,0.1,2,0.1c-0.4-0.3-0.8-0.5-1.2-0.8c-0.4-0.3-0.9-0.5-1.3-0.7c-0.9-0.4-1.8-0.9-2.6-1.1c0.2,0,0.3-0.1,0.3-0.2
			c-1.3-0.5-2.3-1-3.5-1.3c-1.1-0.3-2.2-0.7-3.6-1c4.1,0.1,8.8,2.2,12.8,5.1c0.3,0,0.6-0.1,0.9-0.1c-4-3.4-9-5.7-14.2-6.7l-1-0.2
			c-0.3,0-0.7-0.1-1-0.1l-2-0.2c-1.3-0.2-2.6-0.1-3.9-0.1c-1.2,0.1-2.5,0.2-3.7,0.4c0.3-0.1,0.6-0.1,0.9-0.2
			c4.1-0.7,8.7-0.5,13.2,0.8s8.7,3.5,12.4,6.2c0.5-0.2,0.9-0.6,0.9-1.2c-3.8-3.5-8.6-5.8-13.6-7.1s-10.2-1.5-15.3-1l-0.2,0.1
			c-0.5,0.2-1.1,0.4-1.7,0.6c-0.6,0.2-1.2,0.4-1.9,0.6c-0.6,0.2-1.3,0.4-2,0.7s-1.3,0.5-2,0.8c-1.4,0.5-2.7,1.3-4,2
			s-2.4,1.6-3.4,2.5c-3.2,3.1-6.1,6.4-8,10.1c0.3-0.6,0.6-1.3,0.8-1.9c0.7-1.2,1.4-2.5,2.2-3.6c0.7-0.9,1.4-1.6,2.1-2.4
			c0.8-0.7,1.6-1.3,2.4-2c0.7-0.7,1.6-1.2,2.4-1.8c0.4-0.3,0.8-0.6,1.2-0.9c0.4-0.3,0.8-0.6,1.2-0.9c0.5-0.3,1.2-0.7,2-1.1
			c0.9-0.3,1.8-0.7,2.5-1c0.6-0.4,1.3-0.7,2-1c-0.8,0.1-1.6,0.3-2.4,0.5c-0.3,0,3-1.4,6.5-2.2c1.8-0.5,3.6-0.6,4.9-0.9
			c1.3-0.2,2.1-0.3,2-0.5c0,0-0.2,0-0.6,0c-0.3,0-0.8-0.1-1.5,0c-1.3,0.2-3.1,0.2-5.2,0.7c-0.5,0.1-1.1,0.2-1.6,0.3
			c-0.5,0.2-1,0.3-1.6,0.5c-1.1,0.3-2.3,0.6-3.4,1.1c-2.3,0.8-4.5,1.9-6.4,2.9c-0.9,0.2-0.9-0.5-0.5-1.4c0.3-0.8,1.2-1.8,1.7-2.1
			c0.1-0.1,0.2-0.2,0.3-0.3c-1.1,0.5-2.1,0.9-3.1,1.4c0.3-0.2,0.6-0.4,0.8-0.5l1.6-0.9l1.6-0.9l0.6-0.3c-0.1,0.1-0.2,0.1-0.3,0.2
			c-0.5,0.3-0.9,0.7-1.3,1l1.2-0.5c0.4-0.2,0.8-0.3,1.3-0.4c0.8-0.3,1.6-0.6,2.4-0.9c2.5-1.2,4.1-1.8,5.1-1.9
			c0.4-0.3,0.9-0.6,1.6-1.1c-0.2,0-0.3,0-0.5,0.1c-0.7,0.2-1.4,0.4-2.1,0.5c-0.7,0.2-1.4,0.5-2.1,0.7c-0.7,0.2-1.4,0.5-2.1,0.7
			c-0.7,0.3-1.4,0.6-2,0.9c-0.2,0.1-0.3,0.2-0.5,0.3c-0.6,0.2-1.2,0.4-1.7,0.6l-2.2,1c-1.3,0.5-2.5,1.2-3.8,1.9
			c4.4-3.1,9.3-5.5,14.5-7c-3.6,0.8-7.8,2-11,3.8c-1.6,0.8-3.1,1.9-4.6,2.9c-0.7,0.5-1.4,1.1-2.1,1.7c-0.7,0.5-1.4,1.1-2,1.7
			c-2.5,2.4-4.8,5-6.6,7.9c-3.6,5.7-5.9,12.1-6.6,18.5c0.1,0.8,0.2,1.6,0.2,2.4c0,0.4,0,0.8,0,1.2c0.1,0.4,0.1,0.8,0.1,1.2
			c0,3.6,0.5,7.7,1.3,11.1c0.2-0.7,0.6,1,0.8,1c0.3,0.8,0.6,1.7,1,2.5c0.4,0.8,0.8,1.7,1.1,2.6c0.3,0.9,0.8,1.8,1.2,2.7
			c0.2,0.4,0.4,0.9,0.6,1.3l0.8,1.3c0.3,0.5,0.1,0.6,0.3,1.1c0,0-0.1-0.1-0.1-0.1l-0.1-0.1c-5.9-8.3-8.4-18.5-7.3-28.4
			c-0.1-0.5-0.1-1-0.1-1.5c-1.6,6.5-1,13.5,1.4,19.1c0.4,1.1,1.5,2.6,1.8,3.7c2.1,5.2,5.4,9.4,9.2,12.8c-1.7-1.6-3.2-3.4-4.7-5.3
			c0.2,0.2,0.4,0.3,0.7,0.6c0.3,0.2,0.5,0.5,0.8,0.7c0.5,0.5,1.1,1,1.6,1.6c0.5,0.5,1.1,1,1.7,1.6c0.5,0.6,1.1,1.1,1.7,1.7
			c0.6,0.5,1.3,1.1,1.9,1.6l0.9,0.8c0.3,0.3,0.7,0.5,1,0.8c0.2,0.1,0.3,0.2,0.5,0.4c-2.1-1.3-4-2.8-5.9-4.5
			c4.1,3.9,8.7,6.8,13.7,8.8c-0.6-0.3-1.1-0.5-1.7-0.8c0.6,0.2,1.3,0.5,1.9,0.9c3.5,1.4,7.2,2.2,11,2.5c4.4,0.4,8.7-0.2,12.7-1.4
			c3.9-1.2,7.6-3,10.8-5.5c0.7-0.5,1.3-1,1.9-1.5c0.6-0.5,1.3-1,1.9-1.5c1.1-1.1,2.4-2.1,3.5-3.3c-0.1,0.3-0.2,0.5-0.3,0.8
			c0.7-0.7,1.4-1.5,2.1-2.2c0.6-0.8,1.2-1.6,1.8-2.4c0.7-0.8,1.1-1.7,1.6-2.6c0.2-0.4,0.5-0.8,0.7-1.3c0.2-0.4,0.4-0.9,0.6-1.4
			c0.1-0.3,0.3-0.7,0.4-1c1.4-4,2.2-7.9,2.4-11.8C426.5,127.8,426.1,123.8,425.1,119.7z M385,95C385,95,385,95,385,95
			c0,0,0.1,0,0.2-0.1C385.1,94.9,385.1,94.9,385,95z M376.3,96.9c0.6-0.3,1.2-0.6,1.8-0.9c-0.2,0.1-0.4,0.2-0.6,0.3
			c0.9-0.2,1.8-0.5,2.7-0.7l-2.8,1c-0.4,0.2-0.8,0.4-1.2,0.6c0.3-0.2,0.7-0.4,1-0.6C376.9,96.7,376.6,96.8,376.3,96.9
			c-0.6,0.4-1.2,0.7-1.8,1.1c0.4-0.2,0.8-0.4,1.1-0.5c-0.7,0.4-1.3,0.8-2,1.2c-0.4,0.2-0.9,0.5-1.3,0.7c0.2-0.1,0.4-0.3,0.6-0.4
			c0.5-0.4,1.1-0.9,1.7-1.2c-4.8,2.3-9.3,6-12.1,10.5c-0.7,0.9-1.3,1.9-1.9,2.8c0.1-0.3,0.2-0.6,0.1-0.7c0-0.1,0.1-0.2,0.1-0.3
			C364.6,104.3,369.8,99.5,376.3,96.9z M368.3,92.4c-0.7,0.4-1.4,0.9-2,1.4l-2.5,2.1c-0.7,0.6-1.3,1.3-1.9,1.9
			c-0.6,0.7-1.3,1.3-1.8,2c-1.1,1.4-2.3,2.8-3.2,4.3c0.4-0.8,0.9-1.7,1.4-2.5c0.3-0.4,0.5-0.8,0.8-1.2c1-1.6,2.5-3.1,4.1-4.6
			c0.9-0.7,1.8-1.3,2.7-2c0.5-0.3,1-0.6,1.5-0.9C367.7,92.7,368,92.5,368.3,92.4z M356.5,102.6c1.9-3.6,5.5-7.2,9.8-9.9
			c-4.5,3.4-8.3,7.7-11.2,12.5C355.6,104.3,356,103.5,356.5,102.6z M355.3,135.5c-0.2-0.8-0.5-1.6-0.8-2.4c-0.3-0.8-0.5-1.6-0.7-2.5
			c-0.2-0.9-0.5-1.8-0.5-2.7c0,0,0,0,0,0c0-0.5,0.2-1.1,0.2-1.6c-0.2-0.5-0.3-1.2-0.4-1.9c0,0.6,0,1.2,0,1.8c0-0.2,0-0.4-0.1-0.7
			c-0.1-0.8,0-1.6,0-2.4c0-1.6,0.3-3.2,0.6-4.9c0.2-0.9,0.5-1.7,0.7-2.5l0.4-1.2c0.2-0.4,0.3-0.8,0.5-1.2l0.3-0.7
			c-0.4,1-0.7,2-1,3.1c1.3-4.1,3.4-7.8,5.2-10.9c0.2-0.2,0.4-0.5,0.6-0.7l0.3-0.3c1.1-1,2.3-2,3.7-3.2l0.3-0.5l0.3,0.4
			c-0.4,0.5-0.8,1-1.2,1.5c-0.4,0.5-0.8,1.1-1.2,1.6c-0.4,0.5-0.9,1-1.3,1.5c-0.4,0.5-0.8,1.1-1.2,1.6c-0.4,0.6-0.8,1.1-1.2,1.7
			l-1.1,1.8c-0.8,1.2-1.2,2.4-1.7,3.7c-1,3.3-1.9,6.8-2,10.3c-0.1,0.8,0,1.7,0,2.6c0,0.9,0,1.7,0.2,2.6c0.1,0.8,0.2,1.7,0.4,2.5
			s0.4,1.6,0.7,2.4c0.3,1,0.6,2.5,0.9,3.5C356,137.1,355.6,136.3,355.3,135.5z M390.5,164.8c-0.9,0.4-2.3,0.6-4,0.8
			c-3.4,0.1-7.6-0.7-9.6-1.5c-1.3-0.4-2.6-1.1-3.9-1.7c-0.6-0.3-1.2-0.7-1.9-1c-0.7-0.4-1.3-0.7-2-1.1c-0.6-0.4-1.3-0.8-1.9-1.2
			c-0.6-0.5-1.3-0.8-1.9-1.3c-0.6-0.4-1.2-0.9-1.8-1.3c-0.3-0.3-0.6-0.5-0.9-0.7l-0.8-0.7c0.1-2.7,4.3,2.5,11.2,6.2
			c3.4,1.7,7.4,2.9,10.8,3.3c0.8,0,1.6,0.1,2.4,0.1c0.7,0,1.5-0.1,2.1-0.2c0.6-0.1,1.2-0.2,1.7-0.4c0.5-0.1,0.9-0.4,1.2-0.6
			C391.7,163.9,391.4,164.4,390.5,164.8z"/>
		<path class="st7" d="M349.2,116.3c-0.2,0.6-0.5,1.8-0.6,2.4c0,0.4,0,0.8,0,1.1c0.1-0.6,0.3-1.1,0.4-1.7
			C349.1,117.5,349.1,116.9,349.2,116.3z"/>
	</g>
	<g>
		<path class="st8" d="M214.3,451.1c-0.4-0.8-1-1.7-0.6,0.2C214.9,452.9,214.7,452,214.3,451.1z"/>
		<path class="st8" d="M248.5,480.5c-1-0.2-2.1-0.4-3.1-0.6C246.4,480.2,247.4,480.4,248.5,480.5z"/>
		<path class="st8" d="M245.4,479.9c-0.8-0.2-1.5-0.4-2.3-0.6C243.8,479.6,244.6,479.8,245.4,479.9z"/>
		<path class="st8" d="M291.8,458.3c-0.1,0.2-0.2,0.3-0.2,0.5c0,0.1,0,0.1-0.1,0.2C291.6,458.8,291.7,458.5,291.8,458.3z"/>
		<path class="st8" d="M292.7,435.1c-1.2-3.9-3-7.6-5.5-10.8c-0.5-0.7-1-1.3-1.5-1.9c-0.5-0.6-1-1.3-1.5-1.9
			c-1.1-1.1-2.1-2.4-3.3-3.5c0.3,0.1,0.5,0.2,0.8,0.3c-0.7-0.7-1.5-1.4-2.2-2.1c-0.8-0.6-1.6-1.2-2.4-1.8c-0.8-0.7-1.7-1.1-2.6-1.6
			c-0.4-0.2-0.8-0.5-1.3-0.7c-0.4-0.2-0.9-0.4-1.4-0.6c-0.3-0.1-0.7-0.3-1-0.4c-4-1.4-7.9-2.2-11.8-2.4c-3.9-0.2-7.9,0.2-12,1.2
			c-0.5,0.1-1,0.2-1.5,0.4l-1.5,0.6l-1.5,0.6c-0.5,0.2-0.9,0.5-1.4,0.7c-1.3,0.8,1.4,0.6-0.8,1.8c0.1,0,0.3,0,0.4,0
			c0.8-0.4,1.6-1,2.2-1.3c0.7-0.3,1.2-0.5,1.5-0.4c0.3,0.2,0,0.5-0.6,1c-6.8,2.6-12.5,7.3-16.4,13.3c0-0.7,0.1-1.3,0.1-2
			c-0.3,0.4-0.5,0.8-0.8,1.2c-0.3,0.4-0.5,0.9-0.7,1.3c-0.4,0.9-0.9,1.8-1.1,2.6c0-0.2-0.1-0.3-0.2-0.3c-0.5,1.3-1,2.3-1.3,3.5
			c-0.3,1.1-0.7,2.2-1,3.6c0.1-4.1,2.2-8.8,5.1-12.8c0-0.3-0.1-0.6-0.1-0.9c-3.4,4-5.7,9-6.7,14.2l-0.2,1c0,0.3-0.1,0.7-0.1,1
			l-0.2,2c-0.2,1.3-0.1,2.6-0.1,3.9c0,0.5,0.1,1.1,0.1,1.6c-0.5-3.8-0.2-8,1-12c1.3-4.5,3.5-8.7,6.2-12.4c-0.2-0.5-0.6-0.9-1.2-0.9
			c-3.5,3.8-5.8,8.6-7.1,13.6c-1.3,5-1.5,10.2-1,15.3l0.1,0.2c0.2,0.5,0.4,1.1,0.6,1.7c0.2,0.6,0.4,1.2,0.6,1.9
			c0.2,0.6,0.4,1.3,0.7,2c0.3,0.7,0.5,1.3,0.8,2c0.5,1.4,1.3,2.7,2,4s1.6,2.4,2.5,3.4c3.5,3.6,7.4,6.9,11.8,8.8
			c-0.2-0.1-0.4-0.2-0.6-0.2l-1-0.5c-0.7-0.3-1.4-0.6-2.1-0.9c-1.2-0.7-2.5-1.4-3.6-2.2c-0.9-0.7-1.6-1.4-2.4-2.1
			c-0.7-0.8-1.3-1.6-2-2.4c-0.7-0.7-1.2-1.6-1.8-2.4c-0.3-0.4-0.6-0.8-0.9-1.2s-0.6-0.8-0.9-1.2c-0.3-0.5-0.7-1.2-1.1-2
			c-0.3-0.9-0.7-1.8-1-2.5c-0.4-0.6-0.7-1.3-1-2c0.1,0.8,0.3,1.6,0.5,2.4c0,0.3-1.4-3-2.2-6.5c-0.5-1.8-0.6-3.6-0.9-4.9
			c-0.2-1.3-0.3-2.1-0.5-2c0,0,0,0.2,0,0.6c0,0.3-0.1,0.8,0,1.5c0.2,1.3,0.2,3.1,0.7,5.2c0.1,0.5,0.2,1.1,0.3,1.6
			c0.2,0.5,0.3,1,0.5,1.6c0.3,1.1,0.6,2.3,1.1,3.4c0.8,2.3,1.9,4.5,2.9,6.4c0.2,0.9-0.5,0.9-1.4,0.5c-0.8-0.3-1.8-1.2-2.1-1.7
			c-0.1-0.1-0.2-0.2-0.3-0.3c0.5,1.1,0.9,2.1,1.4,3.1c-0.2-0.3-0.4-0.6-0.5-0.8l-0.9-1.6l-0.9-1.6l-0.3-0.6c0.1,0.1,0.1,0.2,0.2,0.3
			c0.3,0.5,0.7,0.9,1,1.3l-0.5-1.2c-0.2-0.4-0.3-0.8-0.4-1.3c-0.3-0.8-0.6-1.6-0.9-2.4c-1.2-2.5-1.8-4.1-1.9-5.1
			c-0.3-0.4-0.6-0.9-1.1-1.6c0,0.2,0,0.3,0.1,0.5c0.2,0.7,0.4,1.4,0.5,2.1c0.2,0.7,0.5,1.4,0.7,2.1s0.5,1.4,0.7,2.1
			c0.3,0.7,0.6,1.4,0.9,2c0.1,0.2,0.2,0.3,0.3,0.5c0.2,0.6,0.4,1.2,0.6,1.7l1,2.2c0.5,1.3,1.2,2.5,1.9,3.8c-3.1-4.4-5.5-9.3-7-14.5
			c0.8,3.6,2,7.8,3.8,11c0.8,1.6,1.9,3.1,2.9,4.6c0.5,0.7,1.1,1.4,1.7,2.1c0.5,0.7,1.1,1.4,1.7,2c2.4,2.5,5,4.8,7.9,6.6
			c5.7,3.6,12.1,5.9,18.5,6.6c0.8-0.1,1.6-0.2,2.4-0.2c0.4,0,0.8,0,1.2,0c0.4-0.1,0.8-0.1,1.2-0.1c3.6,0,7.7-0.5,11.1-1.3
			c-0.7-0.2,1-0.6,1-0.8c0.8-0.3,1.7-0.6,2.5-1c0.8-0.4,1.7-0.8,2.6-1.1s1.8-0.8,2.7-1.2c0.4-0.2,0.9-0.4,1.3-0.6l1.3-0.8
			c0.5-0.3,0.6-0.1,1.1-0.3c0,0-0.1,0.1-0.1,0.1l-0.1,0.1c-8.3,5.9-18.5,8.4-28.4,7.3c-0.5,0.1-1,0.1-1.5,0.1
			c6.5,1.6,13.5,1,19.1-1.4c1.1-0.4,2.6-1.5,3.7-1.8c5.2-2.1,9.4-5.4,12.8-9.2c-1.6,1.7-3.4,3.2-5.3,4.7c0.2-0.2,0.3-0.4,0.6-0.7
			c0.2-0.3,0.5-0.5,0.7-0.8c0.5-0.5,1-1.1,1.6-1.6c0.5-0.5,1-1.1,1.6-1.7c0.6-0.5,1.1-1.1,1.7-1.7c0.5-0.6,1.1-1.3,1.6-1.9l0.8-0.9
			c0.3-0.3,0.5-0.7,0.8-1c0.1-0.2,0.2-0.3,0.4-0.5c-1.3,2.1-2.8,4-4.5,5.9c3.9-4.1,6.8-8.7,8.8-13.7c-0.3,0.6-0.5,1.1-0.8,1.7
			c0.2-0.6,0.5-1.3,0.9-1.9c1.4-3.5,2.2-7.2,2.5-11C294.5,443.4,293.9,439.1,292.7,435.1z M224,457.1c-0.2-0.3-0.3-0.7-0.5-1
			c-0.2-0.8-0.4-1.5-0.6-2.3l1,2.8c0.2,0.4,0.4,0.8,0.6,1.2c-0.2-0.3-0.4-0.7-0.6-1C223.9,456.9,224,457,224,457.1z M222.2,448.8
			c0,0.1,0,0.1,0.1,0.2c0,0,0,0,0,0C222.2,448.9,222.2,448.9,222.2,448.8z M224.5,458.1c0.3,0.5,0.6,0.9,0.8,1.4
			c-0.2-0.4-0.4-0.8-0.5-1.2c0.4,0.7,0.8,1.3,1.2,2c0.2,0.4,0.5,0.9,0.7,1.3c-0.1-0.2-0.3-0.4-0.4-0.6c-0.4-0.5-0.9-1.1-1.2-1.7
			c2.3,4.8,6,9.3,10.5,12.1c0.9,0.7,1.9,1.3,2.8,1.9c-0.3-0.1-0.6-0.2-0.7-0.1c0,0-0.1,0-0.1,0C231.8,469.5,227,464.4,224.5,458.1z
			 M221.1,467.7l2.1,2.5c0.6,0.7,1.3,1.3,1.9,1.9c0.7,0.6,1.3,1.3,2,1.8c1.4,1.1,2.8,2.3,4.3,3.2c-0.8-0.4-1.7-0.9-2.5-1.4
			c-0.4-0.3-0.8-0.5-1.2-0.8c-1.6-1-3.1-2.5-4.6-4.1c-0.7-0.9-1.3-1.8-2-2.7c-0.3-0.5-0.6-1-0.9-1.5c-0.2-0.3-0.4-0.6-0.5-0.9
			C220.1,466.4,220.6,467.1,221.1,467.7z M229.9,477.5c-3.6-1.9-7.2-5.5-9.9-9.8c3.4,4.5,7.7,8.3,12.5,11.2
			C231.6,478.4,230.8,478,229.9,477.5z M262.8,478.6c-0.8,0.2-1.6,0.5-2.4,0.8s-1.6,0.5-2.5,0.7c-0.9,0.2-1.8,0.5-2.7,0.5
			c-0.2,0-0.3,0-0.5,0c-0.4-0.1-0.7-0.1-1.1-0.1c-0.6,0.2-1.5,0.3-2.4,0.3c-0.2,0-0.4,0-0.5,0c-0.7-0.1-1.5-0.1-2.2-0.3
			c0.3,0.1,0.6,0.1,0.8,0.2c0.3,0,0.7,0.1,1,0.1c-1.5,0-3.1-0.3-4.7-0.6c-0.9-0.2-1.7-0.5-2.5-0.7l-1.2-0.4
			c-0.1-0.1-0.3-0.1-0.4-0.2c0.5,0.2,1.1,0.3,1.6,0.5c-3.9-1.2-7.4-3.1-10.4-4.9c-0.4-0.3-0.8-0.7-1.2-1l-0.3-0.3
			c-1-1.1-2-2.3-3.2-3.7l-0.5-0.3l0.4-0.3c0.5,0.4,1,0.8,1.5,1.2s1.1,0.8,1.6,1.2c0.5,0.4,1,0.9,1.5,1.3s1.1,0.8,1.6,1.2
			c0.6,0.4,1.1,0.8,1.7,1.2l1.8,1.1c1.2,0.8,2.4,1.2,3.7,1.7c3.3,1,6.8,1.9,10.3,2c0.8,0.1,1.7,0,2.6,0c0.9,0,1.7,0,2.6-0.2
			c0.8-0.1,1.7-0.2,2.5-0.4s1.6-0.4,2.4-0.7c1-0.2,2.5-0.5,3.5-0.9C264.4,477.9,263.6,478.3,262.8,478.6z M291.4,457.1
			c-0.4,1.3-1.1,2.6-1.7,3.9c-0.3,0.6-0.7,1.2-1,1.9c-0.4,0.7-0.7,1.3-1.1,2c-0.4,0.6-0.8,1.3-1.2,1.9c-0.5,0.6-0.8,1.3-1.3,1.9
			c-0.4,0.6-0.9,1.2-1.3,1.8c-0.3,0.3-0.5,0.6-0.7,0.9l-0.7,0.8c-2.7-0.1,2.5-4.3,6.2-11.2c1.7-3.4,2.9-7.4,3.3-10.8
			c0-0.8,0.1-1.6,0.1-2.4c0-0.7-0.1-1.5-0.2-2.1c-0.1-0.6-0.2-1.2-0.4-1.7c-0.1-0.5-0.4-0.9-0.6-1.2c0.4-0.5,0.9-0.2,1.3,0.7
			c0.4,0.9,0.6,2.3,0.8,4C293,450.9,292.2,455.1,291.4,457.1z"/>
		<path class="st8" d="M243.6,484.7c0.6,0.2,1.8,0.5,2.4,0.6c0.4,0,0.8,0,1.1,0c-0.6-0.1-1.1-0.3-1.7-0.4
			C244.8,484.8,244.2,484.8,243.6,484.7z"/>
	</g>
	<g>
		<path class="st9" d="M77.4,401.8c0.2,0.7,0.4,1.4,0.5,2.1c0.2,0.7,0.5,1.4,0.7,2.1c0.2,0.7,0.5,1.4,0.7,2.1c0.3,0.7,0.6,1.4,0.9,2
			c0.3,0.5,0.6,1,0.9,1.5c0.3,0.5,0.7,0.9,1,1.3l-0.5-1.2c-0.2-0.4-0.3-0.8-0.4-1.3c-0.4-0.7-0.7-1.6-0.9-2.4
			c-1.1-2.4-1.7-3.9-1.9-4.9c1.1,1.4,0.9,0.5,0.5-0.4c-0.3-0.8-0.9-1.5-0.6,0c-0.3-0.4-0.5-0.8-1-1.4
			C77.3,401.5,77.3,401.6,77.4,401.8z"/>
		<path class="st9" d="M110,431.6c-0.8-0.2-1.5-0.4-2.3-0.6C108.4,431.3,109.2,431.5,110,431.6z"/>
		<path class="st9" d="M113.1,432.2c-1-0.2-2.1-0.4-3.1-0.6C111,431.9,112,432.1,113.1,432.2z"/>
		<path class="st9" d="M156.4,410c-0.1,0.2-0.2,0.3-0.2,0.5c0,0.1,0,0.1-0.1,0.2C156.2,410.5,156.3,410.2,156.4,410z"/>
		<path class="st9" d="M157.3,386.8c-1.2-3.9-3-7.6-5.5-10.8c-0.5-0.7-1-1.3-1.5-1.9c-0.5-0.6-1-1.3-1.5-1.9
			c-1.1-1.1-2.1-2.4-3.3-3.5c0.3,0.1,0.5,0.2,0.8,0.3c-0.7-0.7-1.5-1.4-2.2-2.1c-0.8-0.6-1.6-1.2-2.4-1.8c-0.8-0.7-1.7-1.1-2.6-1.6
			c-0.4-0.2-0.8-0.5-1.3-0.7c-0.4-0.2-0.9-0.4-1.4-0.6c-0.3-0.1-0.7-0.3-1-0.4c-4-1.4-7.9-2.2-11.8-2.4c-3.9-0.2-7.9,0.2-12,1.2
			c-0.5,0.1-1,0.2-1.5,0.4l-1.5,0.6l-1.5,0.6c-0.5,0.2-0.9,0.5-1.4,0.7c-1.3,0.8,1.4,0.6-0.8,1.8c0.1,0,0.3,0,0.4,0
			c0.8-0.4,1.6-1,2.2-1.3c0.7-0.3,1.2-0.5,1.5-0.4c0.3,0.1,0.1,0.4-0.4,0.8c-6.9,2.6-12.7,7.3-16.6,13.4c0-0.7,0.1-1.3,0.1-1.9
			c-0.3,0.4-0.5,0.8-0.8,1.2c-0.3,0.4-0.5,0.9-0.7,1.3c-0.4,0.9-0.9,1.8-1.1,2.6c0-0.2-0.1-0.3-0.2-0.3c-0.5,1.3-1,2.3-1.3,3.5
			c-0.3,1.1-0.7,2.2-1,3.6c0.1-4.1,2.2-8.8,5.1-12.8c0-0.3-0.1-0.6-0.1-0.9c-3.4,4-5.7,9-6.7,14.2l-0.2,1c0,0.3-0.1,0.7-0.1,1
			l-0.2,2c-0.2,1.3-0.1,2.6-0.1,3.9c0,0.5,0.1,0.9,0.1,1.4c-0.5-3.8-0.2-7.9,1-11.9c1.3-4.5,3.5-8.7,6.2-12.4
			c-0.2-0.5-0.6-0.9-1.2-0.9c-3.5,3.8-5.8,8.6-7.1,13.6s-1.5,10.2-1,15.3l0.1,0.2c0.2,0.5,0.4,1.1,0.6,1.7c0.2,0.6,0.4,1.2,0.6,1.9
			c0.2,0.6,0.4,1.3,0.7,2s0.5,1.3,0.8,2c0.5,1.4,1.3,2.7,2,4s1.6,2.4,2.5,3.4c3.7,3.8,7.7,7.2,12.3,9.1c0,0,0,0,0,0
			c-0.4-0.1-0.8-0.3-1.1-0.4l-1-0.5c-0.7-0.3-1.4-0.6-2.1-0.9c-1.2-0.7-2.5-1.4-3.6-2.2c-0.9-0.7-1.6-1.4-2.4-2.1
			c-0.7-0.8-1.3-1.6-2-2.4c-0.7-0.7-1.2-1.6-1.8-2.4c-0.3-0.4-0.6-0.8-0.9-1.2c-0.3-0.4-0.6-0.8-0.9-1.2c-0.3-0.5-0.7-1.2-1.1-2
			c-0.3-0.9-0.7-1.8-1-2.5c-0.4-0.6-0.7-1.3-1-2c0.1,0.8,0.3,1.6,0.5,2.4c0,0.3-1.4-3-2.2-6.5c-0.5-1.8-0.6-3.6-0.9-4.9
			c-0.2-1.3-0.3-2.1-0.5-2c0,0,0,0.2,0,0.6c0,0.3-0.1,0.8,0,1.5c0.2,1.3,0.2,3.1,0.7,5.2c0.1,0.5,0.2,1.1,0.3,1.6
			c0.2,0.5,0.3,1,0.5,1.6c0.3,1.1,0.6,2.3,1.1,3.4c0.8,2.3,1.9,4.5,2.9,6.4c0.2,0.9-0.5,0.9-1.4,0.5c-0.8-0.3-1.8-1.2-2.1-1.7
			c-0.1-0.1-0.2-0.2-0.3-0.3c0.5,1.1,0.9,2.1,1.4,3.1c-0.2-0.3-0.4-0.6-0.5-0.8l-0.9-1.6l-0.9-1.6l-0.8-1.7c0-0.1-0.1-0.1-0.1-0.2
			c0.3,0.8,0.5,1.6,0.8,2.3l1,2.2c0.5,1.3,1.2,2.5,1.9,3.8c-3.1-4.4-5.5-9.3-7-14.5c0.8,3.6,2,7.8,3.8,11c0.8,1.6,1.9,3.1,2.9,4.6
			c0.5,0.7,1.1,1.4,1.7,2.1c0.5,0.7,1.1,1.4,1.7,2c2.4,2.5,5,4.8,7.9,6.6c5.7,3.6,12.1,5.9,18.5,6.6c0.8-0.1,1.6-0.2,2.4-0.2
			c0.4,0,0.8,0,1.2,0c0.4-0.1,0.8-0.1,1.2-0.1c3.6,0,7.7-0.5,11.1-1.3c-0.7-0.2,1-0.6,1-0.8c0.8-0.3,1.7-0.6,2.5-1
			c0.8-0.4,1.7-0.8,2.6-1.1c0.9-0.3,1.8-0.8,2.7-1.2c0.4-0.2,0.9-0.4,1.3-0.6l1.3-0.8c0.5-0.3,0.6-0.1,1.1-0.3c0,0-0.1,0.1-0.1,0.1
			l-0.1,0.1c-8.3,5.9-18.5,8.4-28.4,7.3c-0.5,0.1-1,0.1-1.5,0.1c6.5,1.6,13.5,1,19.1-1.4c1.1-0.4,2.6-1.5,3.7-1.8
			c5.2-2.1,9.4-5.4,12.8-9.2c-1.6,1.7-3.4,3.2-5.3,4.7c0.2-0.2,0.3-0.4,0.6-0.7c0.2-0.3,0.5-0.5,0.7-0.8c0.5-0.5,1-1.1,1.6-1.6
			c0.5-0.5,1-1.1,1.6-1.7c0.6-0.5,1.1-1.1,1.7-1.7c0.5-0.6,1.1-1.3,1.6-1.9l0.8-0.9c0.3-0.3,0.5-0.7,0.8-1c0.1-0.2,0.2-0.3,0.4-0.5
			c-1.3,2.1-2.8,4-4.5,5.9c3.9-4.1,6.8-8.7,8.8-13.7c-0.3,0.6-0.5,1.1-0.8,1.7c0.2-0.6,0.5-1.3,0.9-1.9c1.4-3.5,2.2-7.2,2.5-11
			C159.1,395.1,158.5,390.8,157.3,386.8z M88.6,408.7c-0.2-0.4-0.4-0.8-0.6-1.2c-0.2-0.7-0.4-1.4-0.5-2l1,2.8
			c0.1,0.3,0.3,0.6,0.4,0.8c-0.1-0.2-0.3-0.5-0.4-0.7C88.5,408.5,88.6,408.6,88.6,408.7z M86.8,400.5c0,0.1,0.1,0.2,0.1,0.2
			c0,0,0,0,0,0.1C86.9,400.7,86.8,400.6,86.8,400.5z M89.1,409.7c0.3,0.5,0.6,0.9,0.8,1.4c-0.1-0.2-0.2-0.5-0.3-0.7
			c0.4,0.7,0.8,1.4,1.3,2c0.3,0.5,0.5,0.9,0.8,1.4c-0.3-0.3-0.5-0.7-0.8-1.1c-0.4-0.5-0.9-1.1-1.2-1.7c2.4,5,6.3,9.8,11.1,12.5
			c0.1,0,0.1,0.1,0.2,0.1c0.8,0.5,1.6,1.1,2.4,1.5c-0.2,0-0.8-0.4-1.1-0.3C96.5,421.2,91.6,416.2,89.1,409.7z M85.7,419.4l2.1,2.5
			c0.6,0.7,1.3,1.3,1.9,1.9c0.7,0.6,1.3,1.3,2,1.8c1.4,1.1,2.8,2.3,4.3,3.2c-0.8-0.4-1.7-0.9-2.5-1.4c-0.4-0.3-0.8-0.5-1.2-0.8
			c-1.6-1-3.1-2.5-4.6-4.1c-0.7-0.9-1.3-1.8-2-2.7c-0.3-0.5-0.6-1-0.9-1.5c-0.2-0.3-0.4-0.6-0.5-0.9
			C84.7,418.1,85.2,418.8,85.7,419.4z M94.5,429.2c-3.6-1.9-7.2-5.5-9.9-9.8c3.4,4.5,7.7,8.3,12.5,11.2
			C96.2,430.1,95.4,429.7,94.5,429.2z M127.5,430.3c-0.8,0.2-1.6,0.5-2.4,0.8c-0.8,0.3-1.6,0.5-2.5,0.7c-0.9,0.2-1.8,0.5-2.7,0.5
			c-0.2,0-0.4,0-0.6,0.1c-0.4-0.1-0.8-0.2-1.1-0.2c-0.6,0.2-1.4,0.3-2.2,0.3c-0.2,0-0.5,0-0.7,0c-0.7-0.1-1.5-0.1-2.2-0.3
			c0.3,0.1,0.6,0.1,0.8,0.2c0.3,0,0.6,0.1,0.9,0.1c-1.5,0-2.9-0.3-4.5-0.6c-0.9-0.2-1.7-0.5-2.5-0.7l-1.2-0.4c0,0,0,0,0,0
			c0.4,0.1,0.8,0.2,1.1,0.3c-3.7-1.2-7.1-3-10.1-4.7c-0.5-0.4-1-0.8-1.4-1.2l-0.3-0.3c-1-1.1-2-2.3-3.2-3.7l-0.5-0.3l0.4-0.3
			c0.5,0.4,1,0.8,1.5,1.2s1.1,0.8,1.6,1.2c0.5,0.4,1,0.9,1.5,1.3s1.1,0.8,1.6,1.2c0.6,0.4,1.1,0.8,1.7,1.2l1.8,1.1
			c1.2,0.8,2.4,1.2,3.7,1.7c3.3,1,6.8,1.9,10.3,2c0.8,0.1,1.7,0,2.6,0c0.9,0,1.7,0,2.6-0.2c0.8-0.1,1.7-0.2,2.5-0.4s1.6-0.4,2.4-0.7
			c0.9-0.3,2.4-0.5,3.5-0.9C129.1,429.6,128.3,430,127.5,430.3z M156,408.8c-0.4,1.3-1.1,2.6-1.7,3.9c-0.3,0.6-0.7,1.2-1,1.9
			c-0.4,0.7-0.7,1.3-1.1,2c-0.4,0.6-0.8,1.3-1.2,1.9c-0.5,0.6-0.8,1.3-1.3,1.9c-0.4,0.6-0.9,1.2-1.3,1.8c-0.3,0.3-0.5,0.6-0.7,0.9
			l-0.7,0.8c-2.7-0.2,2.5-4.4,6.2-11.2c1.7-3.4,2.9-7.4,3.3-10.8c0-0.8,0.1-1.6,0.1-2.4c0-0.7-0.1-1.5-0.2-2.1
			c-0.1-0.6-0.2-1.2-0.4-1.7c-0.1-0.5-0.4-0.9-0.6-1.2c0.4-0.5,0.9-0.2,1.3,0.7c0.4,0.9,0.6,2.3,0.8,4
			C157.6,402.6,156.8,406.8,156,408.8z"/>
		<path class="st9" d="M108.2,436.4c0.6,0.2,1.8,0.5,2.4,0.6c0.4,0,0.8,0,1.1,0c-0.6-0.1-1.1-0.3-1.7-0.4
			C109.5,436.5,108.8,436.5,108.2,436.4z"/>
	</g>
</g>
</svg>
